# Blender v3.4.1 OBJ File: 'Dungeon_Remastered_1.1_Export.blend'
# www.blender.org
mtllib bar_straight_B_short.mtl
o bar_straight_B_short
v -0.475000 0.200000 0.475000
v -0.475000 0.225000 0.500000
v -0.500000 0.225000 0.475000
v -0.475000 0.775000 0.500000
v -0.475000 0.800000 0.475000
v -0.500000 0.775000 0.475000
v -0.475000 0.200000 -0.475000
v -0.500000 0.225000 -0.475000
v -0.475000 0.225000 -0.500000
v -0.475000 0.800000 -0.475000
v -0.475000 0.775000 -0.500000
v -0.500000 0.775000 -0.475000
v 0.475000 0.200000 0.475000
v 0.500000 0.225000 0.475000
v 0.475000 0.225000 0.500000
v 0.475000 0.800000 0.475000
v 0.475000 0.775000 0.500000
v 0.500000 0.775000 0.475000
v 0.475000 0.200000 -0.475000
v 0.475000 0.225000 -0.500000
v 0.500000 0.225000 -0.475000
v 0.475000 0.800000 -0.475000
v 0.500000 0.775000 -0.475000
v 0.475000 0.775000 -0.500000
v 0.475000 0.799999 0.075000
v 0.500000 0.824999 0.075000
v 0.475000 0.824999 0.100000
v 0.500000 0.974999 0.075000
v 0.475000 0.999999 0.075000
v 0.475000 0.974999 0.100000
v -0.475000 0.799999 0.075000
v -0.475000 0.824999 0.100000
v -0.500000 0.824999 0.075000
v -0.475000 0.999999 0.075000
v -0.500000 0.974999 0.075000
v -0.475000 0.974999 0.100000
v 0.475000 0.799999 -0.475000
v 0.475000 0.824999 -0.500000
v 0.500000 0.824999 -0.475000
v 0.475000 0.999999 -0.475000
v 0.500000 0.974999 -0.475000
v 0.475000 0.974999 -0.500000
v -0.475000 0.799999 -0.475000
v -0.500000 0.824999 -0.475000
v -0.475000 0.824999 -0.500000
v -0.475000 0.999999 -0.475000
v -0.475000 0.974999 -0.500000
v -0.500000 0.974999 -0.475000
v -0.500000 0.974999 0.125000
v -0.475000 0.974999 0.100000
v -0.475000 0.999999 0.125000
v -0.475000 0.824999 0.100000
v -0.500000 0.824999 0.125000
v -0.475000 0.799999 0.125000
v 0.475000 0.974999 0.100000
v 0.500000 0.974999 0.125000
v 0.475000 0.999999 0.125000
v 0.500000 0.824999 0.125000
v 0.475000 0.824999 0.100000
v 0.475000 0.799999 0.125000
v -0.475000 0.974999 0.700000
v -0.500000 0.974999 0.675000
v -0.475000 0.999999 0.675000
v -0.500000 0.824999 0.675000
v -0.475000 0.824999 0.700000
v -0.475000 0.799999 0.675000
v 0.475000 0.974999 0.700000
v 0.475000 0.999999 0.675000
v 0.500000 0.974999 0.675000
v 0.475000 0.824999 0.700000
v 0.500000 0.824999 0.675000
v 0.475000 0.799999 0.675000
v -0.375000 0.500000 0.675000
v -0.375000 0.525000 0.700000
v -0.400000 0.525000 0.675000
v -0.375000 0.725000 0.700000
v -0.375000 0.750000 0.675000
v -0.400000 0.725000 0.675000
v -0.375000 0.500000 0.475000
v -0.400000 0.525000 0.475000
v -0.375000 0.750000 0.475000
v -0.400000 0.725000 0.475000
v 0.375000 0.500000 0.675000
v 0.400000 0.525000 0.675000
v 0.375000 0.525000 0.700000
v 0.375000 0.750000 0.675000
v 0.375000 0.725000 0.700000
v 0.400000 0.725000 0.675000
v 0.375000 0.500000 0.475000
v 0.400000 0.525000 0.475000
v 0.375000 0.750000 0.475000
v 0.400000 0.725000 0.475000
v 0.400000 0.475000 0.475000
v 0.375000 0.500000 0.475000
v 0.400000 0.275000 0.475000
v 0.375000 0.250000 0.475000
v 0.400000 0.475000 0.675000
v 0.375000 0.475000 0.700000
v 0.375000 0.500000 0.675000
v 0.375000 0.275000 0.700000
v 0.400000 0.275000 0.675000
v 0.375000 0.250000 0.675000
v -0.400000 0.475000 0.475000
v -0.375000 0.500000 0.475000
v -0.400000 0.275000 0.475000
v -0.375000 0.250000 0.475000
v -0.400000 0.475000 0.675000
v -0.375000 0.500000 0.675000
v -0.375000 0.475000 0.700000
v -0.400000 0.275000 0.675000
v -0.375000 0.275000 0.700000
v -0.375000 0.250000 0.675000
v 0.475002 -0.000002 0.575000
v 0.500002 0.024997 0.575000
v 0.475002 0.024997 0.600000
v 0.500002 0.174998 0.575000
v 0.475002 0.199997 0.575000
v 0.475002 0.174998 0.600000
v -0.474998 -0.000002 0.575000
v -0.474998 0.024997 0.600000
v -0.499998 0.024997 0.575000
v -0.474998 0.199997 0.575000
v -0.499998 0.174998 0.575000
v -0.474998 0.174998 0.600000
v 0.475002 -0.000002 -0.475000
v 0.475002 0.024997 -0.500000
v 0.500002 0.024997 -0.475000
v 0.475002 0.199997 -0.475000
v 0.500002 0.174998 -0.475000
v 0.475002 0.174998 -0.500000
v -0.474998 -0.000002 -0.475000
v -0.499998 0.024997 -0.475000
v -0.474998 0.024997 -0.500000
v -0.474998 0.199997 -0.475000
v -0.474998 0.174998 -0.500000
v -0.499998 0.174998 -0.475000
v -0.000009 0.684423 0.674156
v 0.042010 0.667018 0.674156
v 0.059414 0.625000 0.674156
v 0.042010 0.582982 0.674156
v -0.000009 0.565577 0.674156
v -0.042027 0.582982 0.674156
v -0.059431 0.625000 0.674156
v -0.042027 0.667018 0.674156
v -0.000009 0.625000 0.743192
v -0.000009 0.684423 0.726990
v -0.000007 0.666482 0.738447
v 0.042010 0.667018 0.726990
v 0.029325 0.654332 0.738447
v 0.059414 0.625000 0.726990
v 0.041474 0.625000 0.738447
v 0.042010 0.582982 0.726990
v 0.029325 0.595668 0.738447
v -0.000009 0.565577 0.726990
v -0.000007 0.583519 0.738447
v -0.042027 0.582982 0.726990
v -0.029339 0.595668 0.738447
v -0.059431 0.625000 0.726990
v -0.041489 0.625000 0.738447
v -0.042027 0.667018 0.726990
v -0.029339 0.654332 0.738447
v -0.000009 0.434423 0.674156
v 0.042010 0.417018 0.674156
v 0.059414 0.375000 0.674156
v 0.042010 0.332982 0.674156
v -0.000009 0.315577 0.674156
v -0.042027 0.332982 0.674156
v -0.059431 0.375000 0.674156
v -0.042027 0.417018 0.674156
v -0.000009 0.375000 0.743192
v -0.000009 0.434423 0.726990
v -0.000007 0.416482 0.738447
v 0.042010 0.417018 0.726990
v 0.029325 0.404332 0.738447
v 0.059414 0.375000 0.726990
v 0.041474 0.375000 0.738447
v 0.042010 0.332982 0.726990
v 0.029325 0.345668 0.738447
v -0.000009 0.315577 0.726990
v -0.000007 0.333519 0.738447
v -0.042027 0.332982 0.726990
v -0.029339 0.345668 0.738447
v -0.059431 0.375000 0.726990
v -0.041489 0.375000 0.738447
v -0.042027 0.417018 0.726990
v -0.029339 0.404332 0.738447
vt 0.578510 0.840776
vt 0.578510 0.898859
vt 0.528631 0.898859
vt 0.528631 0.840776
vt 0.579149 0.840776
vt 0.579149 0.898859
vt 0.579149 0.898859
vt 0.579149 0.840776
vt 0.578510 0.916012
vt 0.528631 0.916012
vt 0.528631 0.916012
vt 0.578510 0.916012
vt 0.527991 0.840776
vt 0.527991 0.898859
vt 0.527991 0.898859
vt 0.527991 0.840776
vt 0.528631 0.840776
vt 0.528631 0.898859
vt 0.578510 0.898859
vt 0.578510 0.840776
vt 0.528631 0.886122
vt 0.528631 0.887651
vt 0.527991 0.887651
vt 0.528631 0.945734
vt 0.528631 0.947262
vt 0.527991 0.945734
vt 0.528631 0.886122
vt 0.527991 0.887651
vt 0.528631 0.887651
vt 0.528631 0.947262
vt 0.528631 0.945734
vt 0.527991 0.945734
vt 0.578510 0.886122
vt 0.579149 0.887651
vt 0.578510 0.887651
vt 0.578510 0.947262
vt 0.578510 0.945734
vt 0.579149 0.945734
vt 0.578510 0.886122
vt 0.578510 0.887651
vt 0.579149 0.887651
vt 0.578510 0.947262
vt 0.579149 0.945734
vt 0.578510 0.945734
vt 0.528631 0.807997
vt 0.578510 0.807997
vt 0.578510 0.807997
vt 0.528631 0.807997
vt 0.559326 0.871346
vt 0.559326 0.880517
vt 0.547815 0.880517
vt 0.547815 0.871346
vt 0.559965 0.871346
vt 0.559965 0.880517
vt 0.559965 0.880517
vt 0.559965 0.871346
vt 0.559326 0.897670
vt 0.547815 0.897670
vt 0.547815 0.897670
vt 0.559326 0.897670
vt 0.547176 0.871346
vt 0.547176 0.880517
vt 0.547176 0.880517
vt 0.547176 0.871346
vt 0.547815 0.871346
vt 0.547815 0.880517
vt 0.559326 0.880517
vt 0.559326 0.871346
vt 0.547815 0.916692
vt 0.547815 0.918221
vt 0.547176 0.918221
vt 0.547815 0.927392
vt 0.547815 0.928920
vt 0.547176 0.927392
vt 0.547815 0.916692
vt 0.547176 0.918221
vt 0.547815 0.918221
vt 0.547815 0.928920
vt 0.547815 0.927392
vt 0.547176 0.927392
vt 0.559326 0.916692
vt 0.559965 0.918221
vt 0.559326 0.918221
vt 0.559326 0.928920
vt 0.559326 0.927392
vt 0.559965 0.927392
vt 0.559326 0.916692
vt 0.559326 0.918221
vt 0.559965 0.918221
vt 0.559326 0.928920
vt 0.559965 0.927392
vt 0.559326 0.927392
vt 0.547815 0.838567
vt 0.559326 0.838567
vt 0.559326 0.838567
vt 0.547815 0.838567
vt 0.559326 0.916692
vt 0.559965 0.918221
vt 0.559326 0.918221
vt 0.559326 0.928920
vt 0.559326 0.928920
vt 0.559965 0.927392
vt 0.559965 0.927392
vt 0.559965 0.918221
vt 0.559326 0.918221
vt 0.559326 0.927392
vt 0.547815 0.927392
vt 0.547815 0.918221
vt 0.547176 0.918221
vt 0.547176 0.927392
vt 0.559326 0.927392
vt 0.547815 0.928920
vt 0.547815 0.927392
vt 0.547815 0.928920
vt 0.547176 0.927392
vt 0.547815 0.916692
vt 0.547815 0.918221
vt 0.547815 0.916692
vt 0.547176 0.918221
vt 0.547815 0.838567
vt 0.559326 0.838567
vt 0.559326 0.838567
vt 0.547815 0.838567
vt 0.559326 0.916692
vt 0.559965 0.871346
vt 0.559965 0.880517
vt 0.559965 0.880517
vt 0.559965 0.871346
vt 0.559326 0.871346
vt 0.559326 0.880517
vt 0.547815 0.880517
vt 0.547815 0.871346
vt 0.547815 0.871346
vt 0.547815 0.880517
vt 0.559326 0.880517
vt 0.559326 0.871346
vt 0.559326 0.897670
vt 0.547815 0.897670
vt 0.547815 0.897670
vt 0.559326 0.897670
vt 0.547176 0.871346
vt 0.547176 0.880517
vt 0.547176 0.880517
vt 0.547176 0.871346
vt 0.578510 0.840776
vt 0.578510 0.898859
vt 0.528631 0.898859
vt 0.528631 0.840776
vt 0.579149 0.840776
vt 0.579149 0.898859
vt 0.579149 0.898859
vt 0.579149 0.840776
vt 0.578510 0.916012
vt 0.528631 0.916012
vt 0.528631 0.916012
vt 0.578510 0.916012
vt 0.527991 0.840776
vt 0.527991 0.898859
vt 0.527991 0.898859
vt 0.527991 0.840776
vt 0.528631 0.886122
vt 0.528631 0.887651
vt 0.527991 0.887651
vt 0.528631 0.945734
vt 0.528631 0.947262
vt 0.527991 0.945734
vt 0.578510 0.886122
vt 0.579149 0.887651
vt 0.578510 0.887651
vt 0.578510 0.947262
vt 0.578510 0.945734
vt 0.579149 0.945734
vt 0.528631 0.886122
vt 0.527991 0.887651
vt 0.528631 0.947262
vt 0.527991 0.945734
vt 0.578510 0.886122
vt 0.579149 0.887651
vt 0.578510 0.947262
vt 0.579149 0.945734
vt 0.528631 0.807997
vt 0.578510 0.807997
vt 0.578510 0.807997
vt 0.528631 0.807997
vt 0.578510 0.840776
vt 0.578510 0.898859
vt 0.528631 0.898859
vt 0.528631 0.840776
vt 0.528631 0.886122
vt 0.528631 0.887651
vt 0.527991 0.887651
vt 0.578510 0.947262
vt 0.528631 0.947262
vt 0.528631 0.945734
vt 0.578510 0.945734
vt 0.578510 0.886122
vt 0.578510 0.887651
vt 0.527991 0.840776
vt 0.527991 0.898859
vt 0.527991 0.898859
vt 0.527991 0.840776
vt 0.528631 0.886122
vt 0.527991 0.887651
vt 0.527991 0.945734
vt 0.528631 0.947262
vt 0.527991 0.945734
vt 0.578510 0.947262
vt 0.579149 0.945734
vt 0.579149 0.945734
vt 0.579149 0.887651
vt 0.579149 0.840776
vt 0.579149 0.898859
vt 0.579149 0.898859
vt 0.579149 0.840776
vt 0.578510 0.886122
vt 0.579149 0.887651
vt 0.528631 0.807997
vt 0.578510 0.807997
vt 0.578510 0.807997
vt 0.528631 0.807997
vt 0.578510 0.916012
vt 0.528631 0.916012
vt 0.528631 0.916012
vt 0.578510 0.916012
vt 0.559326 0.871346
vt 0.559326 0.880517
vt 0.547815 0.880517
vt 0.547815 0.871346
vt 0.559965 0.871346
vt 0.559965 0.880517
vt 0.559965 0.880517
vt 0.559965 0.871346
vt 0.559326 0.897670
vt 0.547815 0.897670
vt 0.547815 0.897670
vt 0.559326 0.897670
vt 0.547176 0.871346
vt 0.547176 0.880517
vt 0.547176 0.880517
vt 0.547176 0.871346
vt 0.547815 0.871346
vt 0.547815 0.880517
vt 0.559326 0.880517
vt 0.559326 0.871346
vt 0.547815 0.916692
vt 0.547815 0.918221
vt 0.547176 0.918221
vt 0.547815 0.927392
vt 0.547815 0.928920
vt 0.547176 0.927392
vt 0.547815 0.916692
vt 0.547176 0.918221
vt 0.547815 0.918221
vt 0.547815 0.928920
vt 0.547815 0.927392
vt 0.547176 0.927392
vt 0.559326 0.916692
vt 0.559965 0.918221
vt 0.559326 0.918221
vt 0.559326 0.928920
vt 0.559326 0.927392
vt 0.559965 0.927392
vt 0.559326 0.916692
vt 0.559326 0.918221
vt 0.559965 0.918221
vt 0.559326 0.928920
vt 0.559965 0.927392
vt 0.559326 0.927392
vt 0.547815 0.838567
vt 0.559326 0.838567
vt 0.559326 0.838567
vt 0.547815 0.838567
vt 0.155483 0.885664
vt 0.155483 0.916914
vt 0.171869 0.928304
vt 0.171869 0.897054
vt 0.195047 0.858175
vt 0.195047 0.889425
vt 0.188255 0.861936
vt 0.188255 0.830686
vt 0.171869 0.850547
vt 0.171869 0.819297
vt 0.155483 0.861936
vt 0.155483 0.830686
vt 0.148696 0.889425
vt 0.148696 0.858175
vt 0.188255 0.916914
vt 0.188255 0.885664
vt 0.171869 0.922520
vt 0.185818 0.912827
vt 0.171869 0.858175
vt 0.191592 0.889425
vt 0.185818 0.866027
vt 0.171869 0.856334
vt 0.157920 0.866027
vt 0.152146 0.889425
vt 0.157920 0.912827
vt 0.155483 0.885664
vt 0.155483 0.916914
vt 0.171869 0.928304
vt 0.171869 0.897054
vt 0.195047 0.858175
vt 0.195047 0.889425
vt 0.188255 0.861936
vt 0.188255 0.830686
vt 0.171869 0.850547
vt 0.171869 0.819297
vt 0.155483 0.861936
vt 0.155483 0.830686
vt 0.148696 0.889425
vt 0.148696 0.858175
vt 0.188255 0.916914
vt 0.188255 0.885664
vt 0.171869 0.922520
vt 0.185818 0.912827
vt 0.171869 0.858175
vt 0.191592 0.889425
vt 0.185818 0.866027
vt 0.171869 0.856334
vt 0.157920 0.866027
vt 0.152146 0.889425
vt 0.157920 0.912827
vn 0.0000 0.0000 1.0000
vn 1.0000 0.0000 0.0000
vn 0.0000 1.0000 0.0000
vn -1.0000 0.0000 0.0000
vn 0.0000 0.0000 -1.0000
vn -0.4606 -0.7588 0.4606
vn -0.2418 -0.6861 0.6861
vn -0.6861 -0.6861 0.2418
vn -0.2418 0.6861 0.6861
vn -0.4606 0.7588 0.4606
vn -0.6861 0.6861 0.2418
vn -0.4606 -0.7588 -0.4606
vn -0.6861 -0.6861 -0.2418
vn -0.2418 -0.6861 -0.6861
vn -0.4606 0.7588 -0.4606
vn -0.2418 0.6861 -0.6861
vn -0.6861 0.6861 -0.2418
vn 0.4606 -0.7588 0.4606
vn 0.6861 -0.6861 0.2418
vn 0.2418 -0.6861 0.6861
vn 0.4606 0.7588 0.4606
vn 0.2418 0.6861 0.6861
vn 0.6861 0.6861 0.2418
vn 0.4606 -0.7588 -0.4606
vn 0.2418 -0.6861 -0.6861
vn 0.6861 -0.6861 -0.2418
vn 0.4606 0.7588 -0.4606
vn 0.6861 0.6861 -0.2418
vn 0.2418 0.6861 -0.6861
vn -0.7071 0.0000 0.7071
vn -0.7071 0.0000 -0.7071
vn 0.7071 0.0000 -0.7071
vn 0.7071 0.0000 0.7071
vn 0.0000 -1.0000 0.0000
vn -0.7071 -0.7071 0.0000
vn -0.7071 0.7071 0.0000
vn 0.7071 -0.7071 0.0000
vn 0.7071 0.7071 0.0000
vn -0.3827 0.9239 0.0000
vn 0.9239 -0.3827 0.0000
vn 0.3827 -0.9239 0.0000
vn -0.3827 -0.9239 0.0000
vn -0.9239 -0.3827 0.0000
vn -0.9239 0.3827 0.0000
vn 0.3827 0.9239 0.0000
vn 0.9239 0.3827 0.0000
vn 0.3806 0.3806 0.8428
vn -0.0000 0.5382 0.8428
vn 0.0000 0.3825 0.9240
vn 0.2705 0.2704 0.9240
vn 0.5382 0.0000 0.8428
vn 0.3825 -0.0000 0.9240
vn 0.3806 -0.3806 0.8428
vn 0.2705 -0.2704 0.9240
vn -0.0000 -0.5382 0.8428
vn 0.0000 -0.3825 0.9240
vn -0.3806 -0.3805 0.8428
vn -0.2704 -0.2704 0.9240
vn -0.5382 0.0000 0.8428
vn -0.3824 -0.0000 0.9240
vn -0.3806 0.3805 0.8428
vn -0.2704 0.2704 0.9240
vn 0.2704 -0.2704 0.9240
usemtl texture
s 1
f 15/1/1 17/2/1 4/3/1 2/4/1
f 21/5/2 23/6/2 18/7/2 14/8/2
f 22/9/3 10/10/3 5/11/3 16/12/3
f 3/13/4 6/14/4 12/15/4 8/16/4
f 9/17/5 11/18/5 24/19/5 20/20/5
f 1/21/6 2/22/7 3/23/8
f 4/24/9 5/25/10 6/26/11
f 7/27/12 8/28/13 9/29/14
f 10/30/15 11/31/16 12/32/17
f 13/33/18 14/34/19 15/35/20
f 16/36/21 17/37/22 18/38/23
f 19/39/24 20/40/25 21/41/26
f 22/42/27 23/43/28 24/44/29
f 7/27/12 1/21/6 3/23/8 8/28/13
f 2/22/30 4/24/30 6/26/30 3/23/30
f 5/25/10 10/30/15 12/32/17 6/26/11
f 11/31/31 9/29/31 8/28/31 12/32/31
f 19/39/24 7/27/12 9/29/14 20/40/25
f 10/30/15 22/42/27 24/44/29 11/31/16
f 23/43/32 21/41/32 20/40/32 24/44/32
f 13/33/18 19/39/24 21/41/26 14/34/19
f 22/42/27 16/36/21 18/38/23 23/43/28
f 17/37/33 15/35/33 14/34/33 18/38/33
f 1/21/6 13/33/18 15/35/20 2/22/7
f 16/36/21 5/25/10 4/24/9 17/37/22
f 7/45/34 19/46/34 13/47/34 1/48/34
f 39/49/2 41/50/2 28/51/2 26/52/2
f 45/53/5 47/54/5 42/55/5 38/56/5
f 46/57/3 34/58/3 29/59/3 40/60/3
f 27/61/1 30/62/1 36/63/1 32/64/1
f 33/65/4 35/66/4 48/67/4 44/68/4
f 25/69/18 26/70/19 27/71/20
f 28/72/23 29/73/21 30/74/22
f 31/75/6 32/76/7 33/77/8
f 34/78/10 35/79/11 36/80/9
f 37/81/24 38/82/25 39/83/26
f 40/84/27 41/85/28 42/86/29
f 43/87/12 44/88/13 45/89/14
f 46/90/15 47/91/16 48/92/17
f 31/75/6 25/69/18 27/71/20 32/76/7
f 26/70/33 28/72/33 30/74/33 27/71/33
f 29/73/21 34/78/10 36/80/9 30/74/22
f 35/79/30 33/77/30 32/76/30 36/80/30
f 43/87/12 31/75/6 33/77/8 44/88/13
f 34/78/10 46/90/15 48/92/17 35/79/11
f 47/91/31 45/89/31 44/88/31 48/92/31
f 37/81/24 43/87/12 45/89/14 38/82/25
f 46/90/15 40/84/27 42/86/29 47/91/16
f 41/85/32 39/83/32 38/82/32 42/86/32
f 25/69/18 37/81/24 39/83/26 26/70/19
f 40/84/27 29/73/21 28/72/23 41/85/28
f 31/93/34 43/94/34 37/95/34 25/96/34
f 60/97/24 59/98/25 58/99/26
f 51/100/15 57/101/27 55/102/29 50/103/16
f 50/103/31 52/104/31 53/105/31 49/106/31
f 62/107/30 64/108/30 65/109/30 61/110/30
f 57/101/27 56/111/28 55/102/29
f 63/112/10 62/107/11 61/110/9
f 69/113/23 68/114/21 67/115/22
f 57/101/27 68/114/21 69/113/23 56/111/28
f 72/116/18 60/97/24 58/99/26 71/117/19
f 63/112/10 51/100/15 49/106/17 62/107/11
f 66/118/6 65/109/7 64/108/8
f 51/100/15 50/103/16 49/106/17
f 68/114/21 63/112/10 61/110/9 67/115/22
f 66/118/6 72/116/18 70/119/20 65/109/7
f 66/120/34 54/121/34 60/122/34 72/123/34
f 56/111/32 58/99/32 59/98/32 55/102/32
f 71/117/33 69/113/33 67/115/33 70/119/33
f 60/97/24 54/124/12 52/104/14 59/98/25
f 54/124/12 66/118/6 64/108/8 53/105/13
f 52/125/5 50/126/5 55/127/5 59/128/5
f 58/129/2 56/130/2 69/131/2 71/132/2
f 72/116/18 71/117/19 70/119/20
f 64/133/4 62/134/4 49/135/4 53/136/4
f 51/137/3 63/138/3 68/139/3 57/140/3
f 70/141/1 67/142/1 61/143/1 65/144/1
f 54/124/12 53/105/13 52/104/14
f 85/145/1 87/146/1 76/147/1 74/148/1
f 90/149/2 92/150/2 88/151/2 84/152/2
f 91/153/3 81/154/3 77/155/3 86/156/3
f 75/157/4 78/158/4 82/159/4 80/160/4
f 73/161/6 74/162/7 75/163/8
f 76/164/9 77/165/10 78/166/11
f 83/167/18 84/168/19 85/169/20
f 86/170/21 87/171/22 88/172/23
f 79/173/35 73/161/6 75/163/8 80/174/35
f 74/162/30 76/164/30 78/166/30 75/163/30
f 77/165/10 81/175/36 82/176/36 78/166/11
f 83/167/18 89/177/37 90/178/37 84/168/19
f 91/179/38 86/170/21 88/172/23 92/180/38
f 87/171/33 85/169/33 84/168/33 88/172/33
f 73/161/6 83/167/18 85/169/20 74/162/7
f 86/170/21 77/165/10 76/164/9 87/171/22
f 79/181/34 89/182/34 83/183/34 73/184/34
f 100/185/1 98/186/1 109/187/1 111/188/1
f 112/189/6 111/190/7 110/191/8
f 99/192/21 108/193/10 109/194/9 98/195/22
f 112/189/6 102/196/18 100/197/20 111/190/7
f 110/198/4 107/199/4 103/200/4 105/201/4
f 106/202/35 112/189/6 110/191/8 105/203/35
f 109/194/9 108/193/10 107/204/11
f 108/193/10 104/205/36 103/206/36 107/204/11
f 94/207/38 99/192/21 97/208/23 93/209/38
f 98/195/33 100/197/33 101/210/33 97/208/33
f 95/211/2 93/212/2 97/213/2 101/214/2
f 102/196/18 101/210/19 100/197/20
f 102/196/18 96/215/37 95/216/37 101/210/19
f 106/217/34 96/218/34 102/219/34 112/220/34
f 94/221/3 104/222/3 108/223/3 99/224/3
f 99/192/21 98/195/22 97/208/23
f 111/190/30 109/194/30 107/204/30 110/191/30
f 127/225/2 129/226/2 116/227/2 114/228/2
f 133/229/5 135/230/5 130/231/5 126/232/5
f 134/233/3 122/234/3 117/235/3 128/236/3
f 115/237/1 118/238/1 124/239/1 120/240/1
f 121/241/4 123/242/4 136/243/4 132/244/4
f 113/245/18 114/246/19 115/247/20
f 116/248/23 117/249/21 118/250/22
f 119/251/6 120/252/7 121/253/8
f 122/254/10 123/255/11 124/256/9
f 125/257/24 126/258/25 127/259/26
f 128/260/27 129/261/28 130/262/29
f 131/263/12 132/264/13 133/265/14
f 134/266/15 135/267/16 136/268/17
f 119/251/6 113/245/18 115/247/20 120/252/7
f 114/246/33 116/248/33 118/250/33 115/247/33
f 117/249/21 122/254/10 124/256/9 118/250/22
f 123/255/30 121/253/30 120/252/30 124/256/30
f 131/263/12 119/251/6 121/253/8 132/264/13
f 122/254/10 134/266/15 136/268/17 123/255/11
f 135/267/31 133/265/31 132/264/31 136/268/31
f 125/257/24 131/263/12 133/265/14 126/258/25
f 134/266/15 128/260/27 130/262/29 135/267/16
f 129/261/32 127/259/32 126/258/32 130/262/32
f 113/245/18 125/257/24 127/259/26 114/246/19
f 128/260/27 117/249/21 116/248/23 129/261/28
f 119/269/34 131/270/34 125/271/34 113/272/34
f 144/273/39 160/274/39 146/275/39 137/276/39
f 139/277/40 150/278/40 152/279/40 140/280/40
f 140/280/41 152/279/41 154/281/41 141/282/41
f 141/282/42 154/281/42 156/283/42 142/284/42
f 142/284/43 156/283/43 158/285/43 143/286/43
f 143/286/44 158/285/44 160/274/44 144/273/44
f 137/276/45 146/275/45 148/287/45 138/288/45
f 138/288/46 148/287/46 150/278/46 139/277/46
f 148/287/47 146/275/48 147/289/49 149/290/50
f 149/290/50 147/289/49 145/291/1
f 150/278/51 148/287/47 149/290/50 151/292/52
f 151/292/52 149/290/50 145/291/1
f 152/279/53 150/278/51 151/292/52 153/293/54
f 153/293/54 151/292/52 145/291/1
f 154/281/55 152/279/53 153/293/54 155/294/56
f 155/294/56 153/293/54 145/291/1
f 156/283/57 154/281/55 155/294/56 157/295/58
f 157/295/58 155/294/56 145/291/1
f 158/285/59 156/283/57 157/295/58 159/296/60
f 159/296/60 157/295/58 145/291/1
f 160/274/61 158/285/59 159/296/60 161/297/62
f 161/297/62 159/296/60 145/291/1
f 146/275/48 160/274/61 161/297/62 147/289/49
f 147/289/49 161/297/62 145/291/1
f 169/298/39 185/299/39 171/300/39 162/301/39
f 164/302/40 175/303/40 177/304/40 165/305/40
f 165/305/41 177/304/41 179/306/41 166/307/41
f 166/307/42 179/306/42 181/308/42 167/309/42
f 167/309/43 181/308/43 183/310/43 168/311/43
f 168/311/44 183/310/44 185/299/44 169/298/44
f 162/301/45 171/300/45 173/312/45 163/313/45
f 163/313/46 173/312/46 175/303/46 164/302/46
f 173/312/47 171/300/48 172/314/49 174/315/50
f 174/315/50 172/314/49 170/316/1
f 175/303/51 173/312/47 174/315/50 176/317/52
f 176/317/52 174/315/50 170/316/1
f 177/304/53 175/303/51 176/317/52 178/318/63
f 178/318/63 176/317/52 170/316/1
f 179/306/55 177/304/53 178/318/63 180/319/56
f 180/319/56 178/318/63 170/316/1
f 181/308/57 179/306/55 180/319/56 182/320/58
f 182/320/58 180/319/56 170/316/1
f 183/310/59 181/308/57 182/320/58 184/321/60
f 184/321/60 182/320/58 170/316/1
f 185/299/61 183/310/59 184/321/60 186/322/62
f 186/322/62 184/321/60 170/316/1
f 171/300/48 185/299/61 186/322/62 172/314/49
f 172/314/49 186/322/62 170/316/1
