# Blender v3.4.1 OBJ File: 'Dungeon_Remastered_1.1_Export.blend'
# www.blender.org
mtllib bar_straight_B.mtl
o bar_straight_B
v -0.975000 0.200000 0.475000
v -0.975000 0.225000 0.500000
v -1.000000 0.225000 0.475000
v -0.975000 0.775000 0.500000
v -0.975000 0.800000 0.475000
v -1.000000 0.775000 0.475000
v -0.975000 0.200000 -0.475000
v -1.000000 0.225000 -0.475000
v -0.975000 0.225000 -0.500000
v -0.975000 0.800000 -0.475000
v -0.975000 0.775000 -0.500000
v -1.000000 0.775000 -0.475000
v 0.975000 0.200000 0.475000
v 1.000000 0.225000 0.475000
v 0.975000 0.225000 0.500000
v 0.975000 0.800000 0.475000
v 0.975000 0.775000 0.500000
v 1.000000 0.775000 0.475000
v 0.975000 0.200000 -0.475000
v 0.975000 0.225000 -0.500000
v 1.000000 0.225000 -0.475000
v 0.975000 0.800000 -0.475000
v 1.000000 0.775000 -0.475000
v 0.975000 0.775000 -0.500000
v 0.975000 0.799999 0.075000
v 1.000000 0.824999 0.075000
v 0.975000 0.824999 0.100000
v 1.000000 0.974999 0.075000
v 0.975000 0.999999 0.075000
v 0.975000 0.974999 0.100000
v -0.975000 0.799999 0.075000
v -0.975000 0.824999 0.100000
v -1.000000 0.824999 0.075000
v -0.975000 0.999999 0.075000
v -1.000000 0.974999 0.075000
v -0.975000 0.974999 0.100000
v 0.975000 0.799999 -0.475000
v 0.975000 0.824999 -0.500000
v 1.000000 0.824999 -0.475000
v 0.975000 0.999999 -0.475000
v 1.000000 0.974999 -0.475000
v 0.975000 0.974999 -0.500000
v -0.975000 0.799999 -0.475000
v -1.000000 0.824999 -0.475000
v -0.975000 0.824999 -0.500000
v -0.975000 0.999999 -0.475000
v -0.975000 0.974999 -0.500000
v -1.000000 0.974999 -0.475000
v 0.975000 0.799999 0.675000
v 1.000000 0.824999 0.675000
v 0.975000 0.824999 0.700000
v 1.000000 0.974999 0.675000
v 0.975000 0.999999 0.675000
v 0.975000 0.974999 0.700000
v -0.975000 0.799999 0.675000
v -0.975000 0.824999 0.700000
v -1.000000 0.824999 0.675000
v -0.975000 0.999999 0.675000
v -1.000000 0.974999 0.675000
v -0.975000 0.974999 0.700000
v 0.975000 0.799999 0.125000
v 0.975000 0.824999 0.100000
v 1.000000 0.824999 0.125000
v 0.975000 0.999999 0.125000
v 1.000000 0.974999 0.125000
v 0.975000 0.974999 0.100000
v -0.975000 0.799999 0.125000
v -1.000000 0.824999 0.125000
v -0.975000 0.824999 0.100000
v -0.975000 0.999999 0.125000
v -0.975000 0.974999 0.100000
v -1.000000 0.974999 0.125000
v 0.490000 0.799999 0.675000
v 0.310000 0.799999 0.675000
v 0.400000 0.799999 0.575000
v 0.490000 0.824999 0.700000
v 0.310000 0.824999 0.700000
v 0.400000 0.824999 0.600000
v 0.310000 0.999999 0.675000
v 0.490000 0.999999 0.675000
v 0.400000 0.999999 0.575000
v 0.310000 0.974999 0.700000
v 0.490000 0.974999 0.700000
v 0.400000 0.974999 0.600000
v -0.875000 0.500000 0.675000
v -0.875000 0.525000 0.700000
v -0.900000 0.525000 0.675000
v -0.875000 0.725000 0.700000
v -0.875000 0.750000 0.675000
v -0.900000 0.725000 0.675000
v -0.875000 0.500000 0.475000
v -0.900000 0.525000 0.475000
v -0.875000 0.750000 0.475000
v -0.900000 0.725000 0.475000
v 0.875000 0.500000 0.675000
v 0.900000 0.525000 0.675000
v 0.875000 0.525000 0.700000
v 0.875000 0.750000 0.675000
v 0.875000 0.725000 0.700000
v 0.900000 0.725000 0.675000
v 0.875000 0.500000 0.475000
v 0.900000 0.525000 0.475000
v 0.875000 0.750000 0.475000
v 0.900000 0.725000 0.475000
v 0.900000 0.475000 0.475000
v 0.875000 0.500000 0.475000
v 0.900000 0.275000 0.475000
v 0.875000 0.250000 0.475000
v 0.900000 0.475000 0.675000
v 0.875000 0.475000 0.700000
v 0.875000 0.500000 0.675000
v 0.875000 0.275000 0.700000
v 0.900000 0.275000 0.675000
v 0.875000 0.250000 0.675000
v -0.900000 0.475000 0.475000
v -0.875000 0.500000 0.475000
v -0.900000 0.275000 0.475000
v -0.875000 0.250000 0.475000
v -0.900000 0.475000 0.675000
v -0.875000 0.500000 0.675000
v -0.875000 0.475000 0.700000
v -0.900000 0.275000 0.675000
v -0.875000 0.275000 0.700000
v -0.875000 0.250000 0.675000
v 0.975002 -0.000002 0.575000
v 1.000002 0.024997 0.575000
v 0.975002 0.024997 0.600000
v 1.000002 0.174998 0.575000
v 0.975002 0.199997 0.575000
v 0.975002 0.174998 0.600000
v -0.974998 -0.000002 0.575000
v -0.974998 0.024997 0.600000
v -0.999998 0.024997 0.575000
v -0.974998 0.199997 0.575000
v -0.999998 0.174998 0.575000
v -0.974998 0.174998 0.600000
v 0.975002 -0.000002 -0.475000
v 0.975002 0.024997 -0.500000
v 1.000002 0.024997 -0.475000
v 0.975002 0.199997 -0.475000
v 1.000002 0.174998 -0.475000
v 0.975002 0.174998 -0.500000
v -0.974998 -0.000002 -0.475000
v -0.999998 0.024997 -0.475000
v -0.974998 0.024997 -0.500000
v -0.974998 0.199997 -0.475000
v -0.974998 0.174998 -0.500000
v -0.999998 0.174998 -0.475000
v -0.000009 0.684423 0.674156
v 0.042010 0.667018 0.674156
v 0.059414 0.625000 0.674156
v 0.042010 0.582982 0.674156
v -0.000009 0.565577 0.674156
v -0.042027 0.582982 0.674156
v -0.059431 0.625000 0.674156
v -0.042027 0.667018 0.674156
v -0.000009 0.625000 0.743192
v -0.000009 0.684423 0.726990
v -0.000007 0.666482 0.738447
v 0.042010 0.667018 0.726990
v 0.029325 0.654332 0.738447
v 0.059414 0.625000 0.726990
v 0.041474 0.625000 0.738447
v 0.042010 0.582982 0.726990
v 0.029325 0.595668 0.738447
v -0.000009 0.565577 0.726990
v -0.000007 0.583519 0.738447
v -0.042027 0.582982 0.726990
v -0.029339 0.595668 0.738447
v -0.059431 0.625000 0.726990
v -0.041489 0.625000 0.738447
v -0.042027 0.667018 0.726990
v -0.029339 0.654332 0.738447
v -0.000009 0.434423 0.674156
v 0.042010 0.417018 0.674156
v 0.059414 0.375000 0.674156
v 0.042010 0.332982 0.674156
v -0.000009 0.315577 0.674156
v -0.042027 0.332982 0.674156
v -0.059431 0.375000 0.674156
v -0.042027 0.417018 0.674156
v -0.000009 0.375000 0.743192
v -0.000009 0.434423 0.726990
v -0.000007 0.416482 0.738447
v 0.042010 0.417018 0.726990
v 0.029325 0.404332 0.738447
v 0.059414 0.375000 0.726990
v 0.041474 0.375000 0.738447
v 0.042010 0.332982 0.726990
v 0.029325 0.345668 0.738447
v -0.000009 0.315577 0.726990
v -0.000007 0.333519 0.738447
v -0.042027 0.332982 0.726990
v -0.029339 0.345668 0.738447
v -0.059431 0.375000 0.726990
v -0.041489 0.375000 0.738447
v -0.042027 0.417018 0.726990
v -0.029339 0.404332 0.738447
vt 0.578510 0.840776
vt 0.578510 0.898859
vt 0.528631 0.898859
vt 0.528631 0.840776
vt 0.579149 0.840776
vt 0.579149 0.898859
vt 0.579149 0.898859
vt 0.579149 0.840776
vt 0.578510 0.916012
vt 0.528631 0.916012
vt 0.528631 0.916012
vt 0.578510 0.916012
vt 0.527991 0.840776
vt 0.527991 0.898859
vt 0.527991 0.898859
vt 0.527991 0.840776
vt 0.528631 0.840776
vt 0.528631 0.898859
vt 0.578510 0.898859
vt 0.578510 0.840776
vt 0.528631 0.886122
vt 0.528631 0.887651
vt 0.527991 0.887651
vt 0.528631 0.945734
vt 0.528631 0.947262
vt 0.527991 0.945734
vt 0.528631 0.886122
vt 0.527991 0.887651
vt 0.528631 0.887651
vt 0.528631 0.947262
vt 0.528631 0.945734
vt 0.527991 0.945734
vt 0.578510 0.886122
vt 0.579149 0.887651
vt 0.578510 0.887651
vt 0.578510 0.947262
vt 0.578510 0.945734
vt 0.579149 0.945734
vt 0.578510 0.886122
vt 0.578510 0.887651
vt 0.579149 0.887651
vt 0.578510 0.947262
vt 0.579149 0.945734
vt 0.578510 0.945734
vt 0.528631 0.807997
vt 0.578510 0.807997
vt 0.578510 0.807997
vt 0.528631 0.807997
vt 0.559326 0.871346
vt 0.559326 0.880517
vt 0.547815 0.880517
vt 0.547815 0.871346
vt 0.559965 0.871346
vt 0.559965 0.880517
vt 0.559965 0.880517
vt 0.559965 0.871346
vt 0.559326 0.897670
vt 0.547815 0.897670
vt 0.547815 0.897670
vt 0.559326 0.897670
vt 0.547176 0.871346
vt 0.547176 0.880517
vt 0.547176 0.880517
vt 0.547176 0.871346
vt 0.547815 0.871346
vt 0.547815 0.880517
vt 0.559326 0.880517
vt 0.559326 0.871346
vt 0.547815 0.916692
vt 0.547815 0.918221
vt 0.547176 0.918221
vt 0.547815 0.927392
vt 0.547815 0.928920
vt 0.547176 0.927392
vt 0.547815 0.916692
vt 0.547176 0.918221
vt 0.547815 0.918221
vt 0.547815 0.928920
vt 0.547815 0.927392
vt 0.547176 0.927392
vt 0.559326 0.916692
vt 0.559965 0.918221
vt 0.559326 0.918221
vt 0.559326 0.928920
vt 0.559326 0.927392
vt 0.559965 0.927392
vt 0.559326 0.916692
vt 0.559326 0.918221
vt 0.559965 0.918221
vt 0.559326 0.928920
vt 0.559965 0.927392
vt 0.559326 0.927392
vt 0.547815 0.838567
vt 0.559326 0.838567
vt 0.559326 0.838567
vt 0.547815 0.838567
vt 0.559326 0.871346
vt 0.559326 0.880517
vt 0.547815 0.880517
vt 0.547815 0.871346
vt 0.550373 0.897670
vt 0.559326 0.897670
vt 0.559326 0.897670
vt 0.547815 0.928920
vt 0.547815 0.928920
vt 0.547176 0.927392
vt 0.547176 0.927392
vt 0.547176 0.871346
vt 0.547176 0.880517
vt 0.547176 0.880517
vt 0.547176 0.871346
vt 0.547815 0.871346
vt 0.547815 0.880517
vt 0.559326 0.880517
vt 0.559326 0.871346
vt 0.547815 0.916692
vt 0.547815 0.918221
vt 0.547176 0.918221
vt 0.547815 0.927392
vt 0.547815 0.916692
vt 0.547176 0.918221
vt 0.547815 0.918221
vt 0.547815 0.928920
vt 0.547815 0.927392
vt 0.547176 0.927392
vt 0.559326 0.916692
vt 0.559965 0.918221
vt 0.559326 0.918221
vt 0.559326 0.928920
vt 0.559326 0.927392
vt 0.559965 0.927392
vt 0.559326 0.916692
vt 0.559326 0.918221
vt 0.559965 0.918221
vt 0.559326 0.928920
vt 0.559965 0.927392
vt 0.559326 0.927392
vt 0.550373 0.838567
vt 0.547815 0.838567
vt 0.547815 0.838567
vt 0.559326 0.838567
vt 0.559965 0.871346
vt 0.559965 0.880517
vt 0.559965 0.880517
vt 0.559965 0.871346
vt 0.547815 0.916692
vt 0.547176 0.918221
vt 0.547176 0.871346
vt 0.547176 0.880517
vt 0.547176 0.880517
vt 0.547176 0.871346
vt 0.547815 0.838567
vt 0.559326 0.838567
vt 0.547815 0.838567
vt 0.547815 0.916692
vt 0.547176 0.918221
vt 0.547815 0.897670
vt 0.547815 0.897670
vt 0.547815 0.928920
vt 0.547176 0.927392
vt 0.547815 0.897670
vt 0.547815 0.897670
vt 0.547815 0.960170
vt 0.547176 0.958642
vt 0.549733 0.958642
vt 0.550373 0.960170
vt 0.549733 0.896142
vt 0.547176 0.896142
vt 0.547815 0.885442
vt 0.547176 0.886971
vt 0.549733 0.886971
vt 0.550373 0.885442
vt 0.550373 0.947942
vt 0.549733 0.949471
vt 0.547176 0.949471
vt 0.547815 0.947942
vt 0.547176 0.911767
vt 0.547176 0.902596
vt 0.549733 0.902596
vt 0.549733 0.911767
vt 0.549733 0.849267
vt 0.549733 0.840096
vt 0.547176 0.840096
vt 0.547176 0.849267
vt 0.578510 0.840776
vt 0.578510 0.898859
vt 0.528631 0.898859
vt 0.528631 0.840776
vt 0.579149 0.840776
vt 0.579149 0.898859
vt 0.579149 0.898859
vt 0.579149 0.840776
vt 0.578510 0.916012
vt 0.528631 0.916012
vt 0.528631 0.916012
vt 0.578510 0.916012
vt 0.527991 0.840776
vt 0.527991 0.898859
vt 0.527991 0.898859
vt 0.527991 0.840776
vt 0.528631 0.886122
vt 0.528631 0.887651
vt 0.527991 0.887651
vt 0.528631 0.945734
vt 0.528631 0.947262
vt 0.527991 0.945734
vt 0.578510 0.886122
vt 0.579149 0.887651
vt 0.578510 0.887651
vt 0.578510 0.947262
vt 0.578510 0.945734
vt 0.579149 0.945734
vt 0.528631 0.886122
vt 0.527991 0.887651
vt 0.528631 0.947262
vt 0.527991 0.945734
vt 0.578510 0.886122
vt 0.579149 0.887651
vt 0.578510 0.947262
vt 0.579149 0.945734
vt 0.528631 0.807997
vt 0.578510 0.807997
vt 0.578510 0.807997
vt 0.528631 0.807997
vt 0.578510 0.840776
vt 0.578510 0.898859
vt 0.528631 0.898859
vt 0.528631 0.840776
vt 0.528631 0.886122
vt 0.528631 0.887651
vt 0.527991 0.887651
vt 0.578510 0.947262
vt 0.528631 0.947262
vt 0.528631 0.945734
vt 0.578510 0.945734
vt 0.578510 0.886122
vt 0.578510 0.887651
vt 0.527991 0.840776
vt 0.527991 0.898859
vt 0.527991 0.898859
vt 0.527991 0.840776
vt 0.528631 0.886122
vt 0.527991 0.887651
vt 0.527991 0.945734
vt 0.528631 0.947262
vt 0.527991 0.945734
vt 0.578510 0.947262
vt 0.579149 0.945734
vt 0.579149 0.945734
vt 0.579149 0.887651
vt 0.579149 0.840776
vt 0.579149 0.898859
vt 0.579149 0.898859
vt 0.579149 0.840776
vt 0.578510 0.886122
vt 0.579149 0.887651
vt 0.528631 0.807997
vt 0.578510 0.807997
vt 0.578510 0.807997
vt 0.528631 0.807997
vt 0.578510 0.916012
vt 0.528631 0.916012
vt 0.528631 0.916012
vt 0.578510 0.916012
vt 0.559326 0.871346
vt 0.559326 0.880517
vt 0.547815 0.880517
vt 0.547815 0.871346
vt 0.559965 0.871346
vt 0.559965 0.880517
vt 0.559965 0.880517
vt 0.559965 0.871346
vt 0.559326 0.897670
vt 0.547815 0.897670
vt 0.547815 0.897670
vt 0.559326 0.897670
vt 0.547176 0.871346
vt 0.547176 0.880517
vt 0.547176 0.880517
vt 0.547176 0.871346
vt 0.547815 0.871346
vt 0.547815 0.880517
vt 0.559326 0.880517
vt 0.559326 0.871346
vt 0.547815 0.916692
vt 0.547815 0.918221
vt 0.547176 0.918221
vt 0.547815 0.927392
vt 0.547815 0.928920
vt 0.547176 0.927392
vt 0.547815 0.916692
vt 0.547176 0.918221
vt 0.547815 0.918221
vt 0.547815 0.928920
vt 0.547815 0.927392
vt 0.547176 0.927392
vt 0.559326 0.916692
vt 0.559965 0.918221
vt 0.559326 0.918221
vt 0.559326 0.928920
vt 0.559326 0.927392
vt 0.559965 0.927392
vt 0.559326 0.916692
vt 0.559326 0.918221
vt 0.559965 0.918221
vt 0.559326 0.928920
vt 0.559965 0.927392
vt 0.559326 0.927392
vt 0.547815 0.838567
vt 0.559326 0.838567
vt 0.559326 0.838567
vt 0.547815 0.838567
vt 0.155483 0.885664
vt 0.155483 0.916914
vt 0.171869 0.928304
vt 0.171869 0.897054
vt 0.195047 0.858175
vt 0.195047 0.889425
vt 0.188255 0.861936
vt 0.188255 0.830686
vt 0.171869 0.850547
vt 0.171869 0.819297
vt 0.155483 0.861936
vt 0.155483 0.830686
vt 0.148696 0.889425
vt 0.148696 0.858175
vt 0.188255 0.916914
vt 0.188255 0.885664
vt 0.171869 0.922520
vt 0.185818 0.912827
vt 0.171869 0.858175
vt 0.191592 0.889425
vt 0.185818 0.866027
vt 0.171869 0.856334
vt 0.157920 0.866027
vt 0.152146 0.889425
vt 0.157920 0.912827
vt 0.155483 0.885664
vt 0.155483 0.916914
vt 0.171869 0.928304
vt 0.171869 0.897054
vt 0.195047 0.858175
vt 0.195047 0.889425
vt 0.188255 0.861936
vt 0.188255 0.830686
vt 0.171869 0.850547
vt 0.171869 0.819297
vt 0.155483 0.861936
vt 0.155483 0.830686
vt 0.148696 0.889425
vt 0.148696 0.858175
vt 0.188255 0.916914
vt 0.188255 0.885664
vt 0.171869 0.922520
vt 0.185818 0.912827
vt 0.171869 0.858175
vt 0.191592 0.889425
vt 0.185818 0.866027
vt 0.171869 0.856334
vt 0.157920 0.866027
vt 0.152146 0.889425
vt 0.157920 0.912827
vn 0.0000 0.0000 1.0000
vn 1.0000 0.0000 0.0000
vn 0.0000 1.0000 0.0000
vn -1.0000 0.0000 0.0000
vn 0.0000 0.0000 -1.0000
vn -0.4606 -0.7588 0.4606
vn -0.2418 -0.6861 0.6861
vn -0.6861 -0.6861 0.2418
vn -0.2418 0.6861 0.6861
vn -0.4606 0.7588 0.4606
vn -0.6861 0.6861 0.2418
vn -0.4606 -0.7588 -0.4606
vn -0.6861 -0.6861 -0.2418
vn -0.2418 -0.6861 -0.6861
vn -0.4606 0.7588 -0.4606
vn -0.2418 0.6861 -0.6861
vn -0.6861 0.6861 -0.2418
vn 0.4606 -0.7588 0.4606
vn 0.6861 -0.6861 0.2418
vn 0.2418 -0.6861 0.6861
vn 0.4606 0.7588 0.4606
vn 0.2418 0.6861 0.6861
vn 0.6861 0.6861 0.2418
vn 0.4606 -0.7588 -0.4606
vn 0.2418 -0.6861 -0.6861
vn 0.6861 -0.6861 -0.2418
vn 0.4606 0.7588 -0.4606
vn 0.6861 0.6861 -0.2418
vn 0.2418 0.6861 -0.6861
vn -0.7071 0.0000 0.7071
vn -0.7071 0.0000 -0.7071
vn 0.7071 0.0000 -0.7071
vn 0.7071 0.0000 0.7071
vn 0.0000 -1.0000 0.0000
vn -0.3753 0.6554 0.6554
vn -0.2563 0.6835 0.6835
vn 0.3753 -0.6554 0.6554
vn 0.2563 -0.6835 0.6835
vn -0.3753 -0.6554 0.6554
vn -0.2563 -0.6835 0.6835
vn 0.3753 0.6554 0.6554
vn 0.2563 0.6835 0.6835
vn 0.6178 0.5560 0.5560
vn -0.6178 0.5560 0.5560
vn -0.6178 -0.5560 0.5560
vn 0.6178 -0.5560 0.5560
vn 0.7433 0.0000 0.6690
vn -0.7433 0.0000 0.6690
vn -0.7071 -0.7071 0.0000
vn -0.7071 0.7071 0.0000
vn 0.7071 -0.7071 0.0000
vn 0.7071 0.7071 0.0000
vn -0.3827 0.9239 0.0000
vn 0.9239 -0.3827 0.0000
vn 0.3827 -0.9239 0.0000
vn -0.3827 -0.9239 0.0000
vn -0.9239 -0.3827 0.0000
vn -0.9239 0.3827 0.0000
vn 0.3827 0.9239 0.0000
vn 0.9239 0.3827 0.0000
vn 0.3806 0.3806 0.8428
vn -0.0000 0.5382 0.8428
vn 0.0000 0.3825 0.9240
vn 0.2705 0.2704 0.9240
vn 0.5382 0.0000 0.8428
vn 0.3825 -0.0000 0.9240
vn 0.3806 -0.3806 0.8428
vn 0.2705 -0.2704 0.9240
vn -0.0000 -0.5382 0.8428
vn 0.0000 -0.3825 0.9240
vn -0.3806 -0.3805 0.8428
vn -0.2704 -0.2704 0.9240
vn -0.5382 0.0000 0.8428
vn -0.3824 -0.0000 0.9240
vn -0.3806 0.3805 0.8428
vn -0.2704 0.2704 0.9240
vn 0.2704 -0.2704 0.9240
usemtl texture
s 1
f 15/1/1 17/2/1 4/3/1 2/4/1
f 21/5/2 23/6/2 18/7/2 14/8/2
f 22/9/3 10/10/3 5/11/3 16/12/3
f 3/13/4 6/14/4 12/15/4 8/16/4
f 9/17/5 11/18/5 24/19/5 20/20/5
f 1/21/6 2/22/7 3/23/8
f 4/24/9 5/25/10 6/26/11
f 7/27/12 8/28/13 9/29/14
f 10/30/15 11/31/16 12/32/17
f 13/33/18 14/34/19 15/35/20
f 16/36/21 17/37/22 18/38/23
f 19/39/24 20/40/25 21/41/26
f 22/42/27 23/43/28 24/44/29
f 7/27/12 1/21/6 3/23/8 8/28/13
f 2/22/30 4/24/30 6/26/30 3/23/30
f 5/25/10 10/30/15 12/32/17 6/26/11
f 11/31/31 9/29/31 8/28/31 12/32/31
f 19/39/24 7/27/12 9/29/14 20/40/25
f 10/30/15 22/42/27 24/44/29 11/31/16
f 23/43/32 21/41/32 20/40/32 24/44/32
f 13/33/18 19/39/24 21/41/26 14/34/19
f 22/42/27 16/36/21 18/38/23 23/43/28
f 17/37/33 15/35/33 14/34/33 18/38/33
f 1/21/6 13/33/18 15/35/20 2/22/7
f 16/36/21 5/25/10 4/24/9 17/37/22
f 7/45/34 19/46/34 13/47/34 1/48/34
f 39/49/2 41/50/2 28/51/2 26/52/2
f 45/53/5 47/54/5 42/55/5 38/56/5
f 46/57/3 34/58/3 29/59/3 40/60/3
f 27/61/1 30/62/1 36/63/1 32/64/1
f 33/65/4 35/66/4 48/67/4 44/68/4
f 25/69/18 26/70/19 27/71/20
f 28/72/23 29/73/21 30/74/22
f 31/75/6 32/76/7 33/77/8
f 34/78/10 35/79/11 36/80/9
f 37/81/24 38/82/25 39/83/26
f 40/84/27 41/85/28 42/86/29
f 43/87/12 44/88/13 45/89/14
f 46/90/15 47/91/16 48/92/17
f 31/75/6 25/69/18 27/71/20 32/76/7
f 26/70/33 28/72/33 30/74/33 27/71/33
f 29/73/21 34/78/10 36/80/9 30/74/22
f 35/79/30 33/77/30 32/76/30 36/80/30
f 43/87/12 31/75/6 33/77/8 44/88/13
f 34/78/10 46/90/15 48/92/17 35/79/11
f 47/91/31 45/89/31 44/88/31 48/92/31
f 37/81/24 43/87/12 45/89/14 38/82/25
f 46/90/15 40/84/27 42/86/29 47/91/16
f 41/85/32 39/83/32 38/82/32 42/86/32
f 25/69/18 37/81/24 39/83/26 26/70/19
f 40/84/27 29/73/21 28/72/23 41/85/28
f 31/93/34 43/94/34 37/95/34 25/96/34
f 63/97/2 65/98/2 52/99/2 50/100/2
f 81/101/3 64/102/3 70/103/3
f 53/104/21 80/105/35 83/106/36 54/107/22
f 51/108/1 54/109/1 83/110/1 76/111/1
f 57/112/4 59/113/4 72/114/4 68/115/4
f 49/116/18 50/117/19 51/118/20
f 52/119/23 53/104/21 54/107/22
f 55/120/6 56/121/7 57/122/8
f 58/123/10 59/124/11 60/125/9
f 61/126/24 62/127/25 63/128/26
f 64/129/27 65/130/28 66/131/29
f 67/132/12 68/133/13 69/134/14
f 70/135/15 71/136/16 72/137/17
f 75/138/34 74/139/34 55/140/34 67/141/34
f 50/117/33 52/119/33 54/107/33 51/118/33
f 59/124/30 57/122/30 56/121/30 60/125/30
f 67/132/12 55/120/6 57/122/8 68/133/13
f 58/123/10 70/135/15 72/137/17 59/124/11
f 71/136/31 69/134/31 68/133/31 72/137/31
f 69/142/5 71/143/5 66/144/5 62/145/5
f 61/126/24 67/132/12 69/134/14 62/127/25
f 65/130/32 63/128/32 62/127/32 66/131/32
f 49/116/18 61/126/24 63/128/26 50/117/19
f 64/129/27 53/104/21 52/119/23 65/130/28
f 55/120/6 74/146/37 77/147/38 56/121/7
f 77/148/1 82/149/1 60/150/1 56/151/1
f 73/152/34 75/138/34 61/153/34 49/154/34
f 75/138/34 67/141/34 61/153/34
f 73/155/39 49/116/18 51/118/20 76/156/40
f 81/101/3 80/157/3 53/158/3 64/102/3
f 79/159/41 58/123/10 60/125/9 82/160/42
f 79/161/3 81/101/3 70/103/3 58/162/3
f 79/163/41 82/164/42 84/165/43 81/166/43
f 81/101/44 84/167/44 83/168/36 80/157/35
f 73/169/39 76/170/40 78/171/45 75/172/45
f 75/173/46 78/174/46 77/175/38 74/176/37
f 82/177/47 77/178/47 78/179/47 84/180/47
f 84/181/48 78/182/48 76/183/48 83/184/48
f 70/135/15 64/129/27 66/131/29 71/136/16
f 97/185/1 99/186/1 88/187/1 86/188/1
f 102/189/2 104/190/2 100/191/2 96/192/2
f 103/193/3 93/194/3 89/195/3 98/196/3
f 87/197/4 90/198/4 94/199/4 92/200/4
f 85/201/6 86/202/7 87/203/8
f 88/204/9 89/205/10 90/206/11
f 95/207/18 96/208/19 97/209/20
f 98/210/21 99/211/22 100/212/23
f 91/213/49 85/201/6 87/203/8 92/214/49
f 86/202/30 88/204/30 90/206/30 87/203/30
f 89/205/10 93/215/50 94/216/50 90/206/11
f 95/207/18 101/217/51 102/218/51 96/208/19
f 103/219/52 98/210/21 100/212/23 104/220/52
f 99/211/33 97/209/33 96/208/33 100/212/33
f 85/201/6 95/207/18 97/209/20 86/202/7
f 98/210/21 89/205/10 88/204/9 99/211/22
f 91/221/34 101/222/34 95/223/34 85/224/34
f 112/225/1 110/226/1 121/227/1 123/228/1
f 124/229/6 123/230/7 122/231/8
f 111/232/21 120/233/10 121/234/9 110/235/22
f 124/229/6 114/236/18 112/237/20 123/230/7
f 122/238/4 119/239/4 115/240/4 117/241/4
f 118/242/49 124/229/6 122/231/8 117/243/49
f 121/234/9 120/233/10 119/244/11
f 120/233/10 116/245/50 115/246/50 119/244/11
f 106/247/52 111/232/21 109/248/23 105/249/52
f 110/235/33 112/237/33 113/250/33 109/248/33
f 107/251/2 105/252/2 109/253/2 113/254/2
f 114/236/18 113/250/19 112/237/20
f 114/236/18 108/255/51 107/256/51 113/250/19
f 118/257/34 108/258/34 114/259/34 124/260/34
f 106/261/3 116/262/3 120/263/3 111/264/3
f 111/232/21 110/235/22 109/248/23
f 123/230/30 121/234/30 119/244/30 122/231/30
f 139/265/2 141/266/2 128/267/2 126/268/2
f 145/269/5 147/270/5 142/271/5 138/272/5
f 146/273/3 134/274/3 129/275/3 140/276/3
f 127/277/1 130/278/1 136/279/1 132/280/1
f 133/281/4 135/282/4 148/283/4 144/284/4
f 125/285/18 126/286/19 127/287/20
f 128/288/23 129/289/21 130/290/22
f 131/291/6 132/292/7 133/293/8
f 134/294/10 135/295/11 136/296/9
f 137/297/24 138/298/25 139/299/26
f 140/300/27 141/301/28 142/302/29
f 143/303/12 144/304/13 145/305/14
f 146/306/15 147/307/16 148/308/17
f 131/291/6 125/285/18 127/287/20 132/292/7
f 126/286/33 128/288/33 130/290/33 127/287/33
f 129/289/21 134/294/10 136/296/9 130/290/22
f 135/295/30 133/293/30 132/292/30 136/296/30
f 143/303/12 131/291/6 133/293/8 144/304/13
f 134/294/10 146/306/15 148/308/17 135/295/11
f 147/307/31 145/305/31 144/304/31 148/308/31
f 137/297/24 143/303/12 145/305/14 138/298/25
f 146/306/15 140/300/27 142/302/29 147/307/16
f 141/301/32 139/299/32 138/298/32 142/302/32
f 125/285/18 137/297/24 139/299/26 126/286/19
f 140/300/27 129/289/21 128/288/23 141/301/28
f 131/309/34 143/310/34 137/311/34 125/312/34
f 156/313/53 172/314/53 158/315/53 149/316/53
f 151/317/54 162/318/54 164/319/54 152/320/54
f 152/320/55 164/319/55 166/321/55 153/322/55
f 153/322/56 166/321/56 168/323/56 154/324/56
f 154/324/57 168/323/57 170/325/57 155/326/57
f 155/326/58 170/325/58 172/314/58 156/313/58
f 149/316/59 158/315/59 160/327/59 150/328/59
f 150/328/60 160/327/60 162/318/60 151/317/60
f 160/327/61 158/315/62 159/329/63 161/330/64
f 161/330/64 159/329/63 157/331/1
f 162/318/65 160/327/61 161/330/64 163/332/66
f 163/332/66 161/330/64 157/331/1
f 164/319/67 162/318/65 163/332/66 165/333/68
f 165/333/68 163/332/66 157/331/1
f 166/321/69 164/319/67 165/333/68 167/334/70
f 167/334/70 165/333/68 157/331/1
f 168/323/71 166/321/69 167/334/70 169/335/72
f 169/335/72 167/334/70 157/331/1
f 170/325/73 168/323/71 169/335/72 171/336/74
f 171/336/74 169/335/72 157/331/1
f 172/314/75 170/325/73 171/336/74 173/337/76
f 173/337/76 171/336/74 157/331/1
f 158/315/62 172/314/75 173/337/76 159/329/63
f 159/329/63 173/337/76 157/331/1
f 181/338/53 197/339/53 183/340/53 174/341/53
f 176/342/54 187/343/54 189/344/54 177/345/54
f 177/345/55 189/344/55 191/346/55 178/347/55
f 178/347/56 191/346/56 193/348/56 179/349/56
f 179/349/57 193/348/57 195/350/57 180/351/57
f 180/351/58 195/350/58 197/339/58 181/338/58
f 174/341/59 183/340/59 185/352/59 175/353/59
f 175/353/60 185/352/60 187/343/60 176/342/60
f 185/352/61 183/340/62 184/354/63 186/355/64
f 186/355/64 184/354/63 182/356/1
f 187/343/65 185/352/61 186/355/64 188/357/66
f 188/357/66 186/355/64 182/356/1
f 189/344/67 187/343/65 188/357/66 190/358/77
f 190/358/77 188/357/66 182/356/1
f 191/346/69 189/344/67 190/358/77 192/359/70
f 192/359/70 190/358/77 182/356/1
f 193/348/71 191/346/69 192/359/70 194/360/72
f 194/360/72 192/359/70 182/356/1
f 195/350/73 193/348/71 194/360/72 196/361/74
f 196/361/74 194/360/72 182/356/1
f 197/339/75 195/350/73 196/361/74 198/362/76
f 198/362/76 196/361/74 182/356/1
f 183/340/62 197/339/75 198/362/76 184/354/63
f 184/354/63 198/362/76 182/356/1
