# Blender v3.4.1 OBJ File: 'Dungeon_Remastered_1.1_Export.blend'
# www.blender.org
mtllib bar_straight_C_short.mtl
o bar_straight_C_short
v -0.475000 0.200000 0.475000
v -0.475000 0.225000 0.500000
v -0.500000 0.225000 0.475000
v -0.475000 0.775000 0.500000
v -0.475000 0.800000 0.475000
v -0.500000 0.775000 0.475000
v -0.475000 0.200000 -0.475000
v -0.500000 0.225000 -0.475000
v -0.475000 0.225000 -0.500000
v -0.475000 0.800000 -0.475000
v -0.475000 0.775000 -0.500000
v -0.500000 0.775000 -0.475000
v 0.475000 0.200000 0.475000
v 0.500000 0.225000 0.475000
v 0.475000 0.225000 0.500000
v 0.475000 0.800000 0.475000
v 0.475000 0.775000 0.500000
v 0.500000 0.775000 0.475000
v 0.475000 0.200000 -0.475000
v 0.475000 0.225000 -0.500000
v 0.500000 0.225000 -0.475000
v 0.475000 0.800000 -0.475000
v 0.500000 0.775000 -0.475000
v 0.475000 0.775000 -0.500000
v 0.475000 0.799999 0.075000
v 0.500000 0.824999 0.075000
v 0.475000 0.824999 0.100000
v 0.500000 0.974999 0.075000
v 0.475000 0.999999 0.075000
v 0.475000 0.974999 0.100000
v -0.475000 0.799999 0.075000
v -0.475000 0.824999 0.100000
v -0.500000 0.824999 0.075000
v -0.475000 0.999999 0.075000
v -0.500000 0.974999 0.075000
v -0.475000 0.974999 0.100000
v 0.475000 0.799999 -0.475000
v 0.475000 0.824999 -0.500000
v 0.500000 0.824999 -0.475000
v 0.475000 0.999999 -0.475000
v 0.500000 0.974999 -0.475000
v 0.475000 0.974999 -0.500000
v -0.475000 0.799999 -0.475000
v -0.500000 0.824999 -0.475000
v -0.475000 0.824999 -0.500000
v -0.475000 0.999999 -0.475000
v -0.475000 0.974999 -0.500000
v -0.500000 0.974999 -0.475000
v -0.500000 0.974999 0.125000
v -0.475000 0.974999 0.100000
v -0.475000 0.999999 0.125000
v -0.475000 0.824999 0.100000
v -0.500000 0.824999 0.125000
v -0.475000 0.799999 0.125000
v 0.475000 0.974999 0.100000
v 0.500000 0.974999 0.125000
v 0.475000 0.999999 0.125000
v 0.500000 0.824999 0.125000
v 0.475000 0.824999 0.100000
v 0.475000 0.799999 0.125000
v -0.475000 0.974999 0.700000
v -0.500000 0.974999 0.675000
v -0.475000 0.999999 0.675000
v -0.500000 0.824999 0.675000
v -0.475000 0.824999 0.700000
v -0.475000 0.799999 0.675000
v 0.475000 0.974999 0.700000
v 0.475000 0.999999 0.675000
v 0.500000 0.974999 0.675000
v 0.475000 0.824999 0.700000
v 0.500000 0.824999 0.675000
v 0.475000 0.799999 0.675000
v -0.375000 0.250000 0.675000
v -0.375000 0.275000 0.700000
v -0.400000 0.275000 0.675000
v -0.375000 0.725000 0.700000
v -0.375000 0.750000 0.675000
v -0.400000 0.725000 0.675000
v -0.375000 0.250000 0.475000
v -0.400000 0.275000 0.475000
v -0.375000 0.750000 0.475000
v -0.400000 0.725000 0.475000
v 0.375000 0.250000 0.675000
v 0.400000 0.275000 0.675000
v 0.375000 0.275000 0.700000
v 0.375000 0.750000 0.675000
v 0.375000 0.725000 0.700000
v 0.400000 0.725000 0.675000
v 0.375000 0.250000 0.475000
v 0.400000 0.275000 0.475000
v 0.375000 0.750000 0.475000
v 0.400000 0.725000 0.475000
v 0.475002 -0.000002 0.575000
v 0.500002 0.024997 0.575000
v 0.475002 0.024997 0.600000
v 0.500002 0.174998 0.575000
v 0.475002 0.199997 0.575000
v 0.475002 0.174998 0.600000
v -0.474998 -0.000002 0.575000
v -0.474998 0.024997 0.600000
v -0.499998 0.024997 0.575000
v -0.474998 0.199997 0.575000
v -0.499998 0.174998 0.575000
v -0.474998 0.174998 0.600000
v 0.475002 -0.000002 -0.475000
v 0.475002 0.024997 -0.500000
v 0.500002 0.024997 -0.475000
v 0.475002 0.199997 -0.475000
v 0.500002 0.174998 -0.475000
v 0.475002 0.174998 -0.500000
v -0.474998 -0.000002 -0.475000
v -0.499998 0.024997 -0.475000
v -0.474998 0.024997 -0.500000
v -0.474998 0.199997 -0.475000
v -0.474998 0.174998 -0.500000
v -0.499998 0.174998 -0.475000
v -0.034817 0.677446 0.753406
v 0.034817 0.677446 0.753406
v -0.034817 0.677446 0.700000
v 0.034817 0.677446 0.700000
v -0.034817 0.536638 0.753406
v 0.034817 0.536638 0.753406
v -0.034817 0.536638 0.700000
v 0.034817 0.536638 0.700000
v -0.034817 0.561703 0.809327
v -0.034817 0.652381 0.809327
v 0.034817 0.652381 0.809327
v 0.034817 0.561703 0.809327
v 0.160328 0.502593 0.734817
v 0.141613 0.502593 0.774945
v 0.098028 0.502593 0.786276
v 0.061051 0.502593 0.758346
v 0.061051 0.502593 0.700000
v 0.141613 0.502593 0.700000
v 0.138848 0.582757 0.734817
v 0.122640 0.573399 0.774945
v 0.084895 0.551607 0.786276
v 0.052872 0.533118 0.758346
v 0.052872 0.533118 0.700000
v 0.122640 0.573399 0.700000
v 0.080164 0.641441 0.734817
v 0.070806 0.625233 0.774945
v 0.049014 0.587487 0.786276
v 0.030526 0.555465 0.758346
v 0.030526 0.555465 0.700000
v 0.070806 0.625233 0.700000
v -0.080164 0.641441 0.734817
v -0.070806 0.625233 0.774945
v -0.049014 0.587487 0.786276
v -0.030526 0.555465 0.758346
v -0.030526 0.555465 0.700000
v -0.070806 0.625233 0.700000
v -0.138848 0.582757 0.734817
v -0.122640 0.573399 0.774945
v -0.084895 0.551607 0.786276
v -0.052872 0.533118 0.758346
v -0.052872 0.533118 0.700000
v -0.122640 0.573399 0.700000
v -0.160328 0.502593 0.734817
v -0.141613 0.502593 0.774945
v -0.098028 0.502593 0.786276
v -0.061051 0.502593 0.758346
v -0.061051 0.502593 0.700000
v -0.141613 0.502593 0.700000
v -0.138848 0.422429 0.734817
v -0.122640 0.431787 0.774945
v -0.084895 0.453579 0.786276
v -0.052872 0.472067 0.758346
v -0.052872 0.472067 0.700000
v -0.122640 0.431787 0.700000
v -0.080164 0.363745 0.734817
v -0.070806 0.379953 0.774945
v -0.049014 0.417698 0.786276
v -0.030526 0.449721 0.758346
v -0.030526 0.449721 0.700000
v -0.070806 0.379953 0.700000
v 0.000000 0.342265 0.734817
v 0.000000 0.360980 0.774945
v 0.000000 0.404565 0.786276
v 0.000000 0.441542 0.758346
v 0.000000 0.441542 0.700000
v 0.000000 0.360980 0.700000
v 0.080164 0.363745 0.734817
v 0.070806 0.379952 0.774945
v 0.049014 0.417698 0.786276
v 0.030526 0.449721 0.758346
v 0.030526 0.449721 0.700000
v 0.070806 0.379952 0.700000
v 0.138848 0.422429 0.734817
v 0.122640 0.431786 0.774945
v 0.084895 0.453579 0.786276
v 0.052872 0.472067 0.758346
v 0.052872 0.472067 0.700000
v 0.122640 0.431786 0.700000
vt 0.578510 0.840776
vt 0.578510 0.898859
vt 0.528631 0.898859
vt 0.528631 0.840776
vt 0.579149 0.840776
vt 0.579149 0.898859
vt 0.579149 0.898859
vt 0.579149 0.840776
vt 0.578510 0.916012
vt 0.528631 0.916012
vt 0.528631 0.916012
vt 0.578510 0.916012
vt 0.527991 0.840776
vt 0.527991 0.898859
vt 0.527991 0.898859
vt 0.527991 0.840776
vt 0.528631 0.840776
vt 0.528631 0.898859
vt 0.578510 0.898859
vt 0.578510 0.840776
vt 0.528631 0.886122
vt 0.528631 0.887651
vt 0.527991 0.887651
vt 0.528631 0.945734
vt 0.528631 0.947262
vt 0.527991 0.945734
vt 0.528631 0.886122
vt 0.527991 0.887651
vt 0.528631 0.887651
vt 0.528631 0.947262
vt 0.528631 0.945734
vt 0.527991 0.945734
vt 0.578510 0.886122
vt 0.579149 0.887651
vt 0.578510 0.887651
vt 0.578510 0.947262
vt 0.578510 0.945734
vt 0.579149 0.945734
vt 0.578510 0.886122
vt 0.578510 0.887651
vt 0.579149 0.887651
vt 0.578510 0.947262
vt 0.579149 0.945734
vt 0.578510 0.945734
vt 0.528631 0.807997
vt 0.578510 0.807997
vt 0.578510 0.807997
vt 0.528631 0.807997
vt 0.559326 0.871346
vt 0.559326 0.880517
vt 0.547815 0.880517
vt 0.547815 0.871346
vt 0.559965 0.871346
vt 0.559965 0.880517
vt 0.559965 0.880517
vt 0.559965 0.871346
vt 0.559326 0.897670
vt 0.547815 0.897670
vt 0.547815 0.897670
vt 0.559326 0.897670
vt 0.547176 0.871346
vt 0.547176 0.880517
vt 0.547176 0.880517
vt 0.547176 0.871346
vt 0.547815 0.871346
vt 0.547815 0.880517
vt 0.559326 0.880517
vt 0.559326 0.871346
vt 0.547815 0.916692
vt 0.547815 0.918221
vt 0.547176 0.918221
vt 0.547815 0.927392
vt 0.547815 0.928920
vt 0.547176 0.927392
vt 0.547815 0.916692
vt 0.547176 0.918221
vt 0.547815 0.918221
vt 0.547815 0.928920
vt 0.547815 0.927392
vt 0.547176 0.927392
vt 0.559326 0.916692
vt 0.559965 0.918221
vt 0.559326 0.918221
vt 0.559326 0.928920
vt 0.559326 0.927392
vt 0.559965 0.927392
vt 0.559326 0.916692
vt 0.559326 0.918221
vt 0.559965 0.918221
vt 0.559326 0.928920
vt 0.559965 0.927392
vt 0.559326 0.927392
vt 0.547815 0.838567
vt 0.559326 0.838567
vt 0.559326 0.838567
vt 0.547815 0.838567
vt 0.559326 0.916692
vt 0.559965 0.918221
vt 0.559326 0.918221
vt 0.559326 0.928920
vt 0.559326 0.928920
vt 0.559965 0.927392
vt 0.559965 0.927392
vt 0.559965 0.918221
vt 0.559326 0.918221
vt 0.559326 0.927392
vt 0.547815 0.927392
vt 0.547815 0.918221
vt 0.547176 0.918221
vt 0.547176 0.927392
vt 0.559326 0.927392
vt 0.547815 0.928920
vt 0.547815 0.927392
vt 0.547815 0.928920
vt 0.547176 0.927392
vt 0.547815 0.916692
vt 0.547815 0.918221
vt 0.547815 0.916692
vt 0.547176 0.918221
vt 0.547815 0.838567
vt 0.559326 0.838567
vt 0.559326 0.838567
vt 0.547815 0.838567
vt 0.559326 0.916692
vt 0.559965 0.871346
vt 0.559965 0.880517
vt 0.559965 0.880517
vt 0.559965 0.871346
vt 0.559326 0.871346
vt 0.559326 0.880517
vt 0.547815 0.880517
vt 0.547815 0.871346
vt 0.547815 0.871346
vt 0.547815 0.880517
vt 0.559326 0.880517
vt 0.559326 0.871346
vt 0.559326 0.897670
vt 0.547815 0.897670
vt 0.547815 0.897670
vt 0.559326 0.897670
vt 0.547176 0.871346
vt 0.547176 0.880517
vt 0.547176 0.880517
vt 0.547176 0.871346
vt 0.578510 0.840776
vt 0.578510 0.898859
vt 0.528631 0.898859
vt 0.528631 0.840776
vt 0.579149 0.840776
vt 0.579149 0.898859
vt 0.579149 0.898859
vt 0.579149 0.840776
vt 0.578510 0.916012
vt 0.528631 0.916012
vt 0.528631 0.916012
vt 0.578510 0.916012
vt 0.527991 0.840776
vt 0.527991 0.898859
vt 0.527991 0.898859
vt 0.527991 0.840776
vt 0.528631 0.886122
vt 0.528631 0.887651
vt 0.527991 0.887651
vt 0.528631 0.945734
vt 0.528631 0.947262
vt 0.527991 0.945734
vt 0.578510 0.886122
vt 0.579149 0.887651
vt 0.578510 0.887651
vt 0.578510 0.947262
vt 0.578510 0.945734
vt 0.579149 0.945734
vt 0.528631 0.886122
vt 0.527991 0.887651
vt 0.528631 0.947262
vt 0.527991 0.945734
vt 0.578510 0.886122
vt 0.579149 0.887651
vt 0.578510 0.947262
vt 0.579149 0.945734
vt 0.528631 0.807997
vt 0.578510 0.807997
vt 0.578510 0.807997
vt 0.528631 0.807997
vt 0.559326 0.871346
vt 0.559326 0.880517
vt 0.547815 0.880517
vt 0.547815 0.871346
vt 0.559965 0.871346
vt 0.559965 0.880517
vt 0.559965 0.880517
vt 0.559965 0.871346
vt 0.559326 0.897670
vt 0.547815 0.897670
vt 0.547815 0.897670
vt 0.559326 0.897670
vt 0.547176 0.871346
vt 0.547176 0.880517
vt 0.547176 0.880517
vt 0.547176 0.871346
vt 0.547815 0.871346
vt 0.547815 0.880517
vt 0.559326 0.880517
vt 0.559326 0.871346
vt 0.547815 0.916692
vt 0.547815 0.918221
vt 0.547176 0.918221
vt 0.547815 0.927392
vt 0.547815 0.928920
vt 0.547176 0.927392
vt 0.547815 0.916692
vt 0.547176 0.918221
vt 0.547815 0.918221
vt 0.547815 0.928920
vt 0.547815 0.927392
vt 0.547176 0.927392
vt 0.559326 0.916692
vt 0.559965 0.918221
vt 0.559326 0.918221
vt 0.559326 0.928920
vt 0.559326 0.927392
vt 0.559965 0.927392
vt 0.559326 0.916692
vt 0.559326 0.918221
vt 0.559965 0.918221
vt 0.559326 0.928920
vt 0.559965 0.927392
vt 0.559326 0.927392
vt 0.547815 0.838567
vt 0.559326 0.838567
vt 0.559326 0.838567
vt 0.547815 0.838567
vt 0.180181 0.960966
vt 0.190337 0.960966
vt 0.190337 0.960966
vt 0.180181 0.960966
vt 0.180181 0.871594
vt 0.190337 0.871594
vt 0.190337 0.871594
vt 0.180181 0.871594
vt 0.180181 0.952772
vt 0.190337 0.952772
vt 0.180181 0.917605
vt 0.180181 0.917605
vt 0.190337 0.917605
vt 0.190337 0.917605
vt 0.180181 0.879788
vt 0.180181 0.909410
vt 0.190337 0.909410
vt 0.190337 0.879788
vt 0.208637 0.860470
vt 0.205506 0.886667
vt 0.203142 0.883607
vt 0.205908 0.860470
vt 0.205908 0.903831
vt 0.203142 0.926969
vt 0.197638 0.919847
vt 0.199552 0.903831
vt 0.199552 0.839336
vt 0.197638 0.859063
vt 0.192973 0.851618
vt 0.194164 0.839336
vt 0.194164 0.817108
vt 0.192973 0.827080
vt 0.192973 0.827080
vt 0.194164 0.817108
vt 0.205908 0.860470
vt 0.203142 0.883607
vt 0.196947 0.905839
vt 0.195582 0.900541
vt 0.195582 0.943902
vt 0.192407 0.931575
vt 0.192407 0.873508
vt 0.189708 0.860617
vt 0.189708 0.834386
vt 0.189708 0.834386
vt 0.195582 0.900541
vt 0.178112 0.873508
vt 0.180810 0.860617
vt 0.180810 0.834386
vt 0.180810 0.834386
vt 0.173571 0.905839
vt 0.174936 0.900541
vt 0.174936 0.900541
vt 0.165012 0.886667
vt 0.167376 0.883607
vt 0.174936 0.943902
vt 0.167376 0.926969
vt 0.172880 0.919847
vt 0.178112 0.931575
vt 0.172880 0.859063
vt 0.177550 0.851618
vt 0.177550 0.827080
vt 0.177550 0.827080
vt 0.167376 0.883607
vt 0.161881 0.860470
vt 0.164615 0.860470
vt 0.164615 0.903831
vt 0.170967 0.903831
vt 0.170967 0.839336
vt 0.176354 0.839336
vt 0.176354 0.817108
vt 0.176354 0.817108
vt 0.164615 0.860470
vt 0.165012 0.834277
vt 0.167376 0.837337
vt 0.167376 0.880698
vt 0.172880 0.887820
vt 0.172880 0.819614
vt 0.177550 0.827049
vt 0.177550 0.807132
vt 0.177550 0.807132
vt 0.167376 0.837337
vt 0.173571 0.815100
vt 0.174936 0.820399
vt 0.174936 0.863760
vt 0.178112 0.876092
vt 0.178112 0.805169
vt 0.180810 0.818060
vt 0.180810 0.799835
vt 0.180810 0.799835
vt 0.174936 0.820399
vt 0.185261 0.808084
vt 0.185261 0.814199
vt 0.185261 0.857561
vt 0.185261 0.871804
vt 0.185261 0.799887
vt 0.185261 0.814766
vt 0.185261 0.797161
vt 0.185261 0.797161
vt 0.185261 0.814199
vt 0.196947 0.815100
vt 0.195582 0.820399
vt 0.195582 0.863760
vt 0.192407 0.876092
vt 0.192407 0.805169
vt 0.189708 0.818060
vt 0.189708 0.799835
vt 0.189708 0.799835
vt 0.195582 0.820399
vt 0.205506 0.834277
vt 0.203142 0.837337
vt 0.203142 0.880698
vt 0.197638 0.887820
vt 0.197638 0.819614
vt 0.192973 0.827049
vt 0.192973 0.807132
vt 0.192973 0.807132
vt 0.203142 0.837337
vn 0.0000 0.0000 1.0000
vn 1.0000 0.0000 0.0000
vn 0.0000 1.0000 0.0000
vn -1.0000 0.0000 0.0000
vn 0.0000 0.0000 -1.0000
vn -0.4606 -0.7588 0.4606
vn -0.2418 -0.6861 0.6861
vn -0.6861 -0.6861 0.2418
vn -0.2418 0.6861 0.6861
vn -0.4606 0.7588 0.4606
vn -0.6861 0.6861 0.2418
vn -0.4606 -0.7588 -0.4606
vn -0.6861 -0.6861 -0.2418
vn -0.2418 -0.6861 -0.6861
vn -0.4606 0.7588 -0.4606
vn -0.2418 0.6861 -0.6861
vn -0.6861 0.6861 -0.2418
vn 0.4606 -0.7588 0.4606
vn 0.6861 -0.6861 0.2418
vn 0.2418 -0.6861 0.6861
vn 0.4606 0.7588 0.4606
vn 0.2418 0.6861 0.6861
vn 0.6861 0.6861 0.2418
vn 0.4606 -0.7588 -0.4606
vn 0.2418 -0.6861 -0.6861
vn 0.6861 -0.6861 -0.2418
vn 0.4606 0.7588 -0.4606
vn 0.6861 0.6861 -0.2418
vn 0.2418 0.6861 -0.6861
vn -0.7071 0.0000 0.7071
vn -0.7071 0.0000 -0.7071
vn 0.7071 0.0000 -0.7071
vn 0.7071 0.0000 0.7071
vn 0.0000 -1.0000 0.0000
vn -0.7071 -0.7071 0.0000
vn -0.7071 0.7071 0.0000
vn 0.7071 -0.7071 0.0000
vn 0.7071 0.7071 0.0000
vn -0.0000 0.9779 0.2091
vn 0.0000 -0.9779 0.2091
vn -0.0000 0.9125 0.4090
vn 0.0000 -0.9125 0.4090
vn 0.9063 -0.0000 0.4227
vn 0.7849 0.4531 0.4227
vn 0.2516 0.0000 0.9678
vn 0.2179 0.1258 0.9678
vn -0.6027 0.0000 0.7980
vn -0.5220 -0.3014 0.7980
vn -0.8660 -0.5000 0.0000
vn 0.8808 0.0000 -0.4735
vn 0.7628 0.4404 -0.4735
vn 0.3570 0.8342 0.4202
vn 0.3342 0.8443 0.4189
vn 0.1022 0.2314 0.9675
vn 0.0864 0.2403 0.9668
vn -0.2426 -0.5543 0.7962
vn -0.2125 -0.5697 0.7939
vn 0.3231 0.8218 -0.4694
vn 0.3481 0.8106 -0.4709
vn 0.2426 -0.5543 0.7962
vn 0.2125 -0.5697 0.7939
vn -0.3570 0.8342 0.4202
vn -0.3342 0.8443 0.4189
vn -0.3231 0.8218 -0.4694
vn -0.3481 0.8106 -0.4709
vn -0.7849 0.4531 0.4227
vn -0.1022 0.2314 0.9675
vn -0.2179 0.1258 0.9678
vn -0.0864 0.2403 0.9668
vn 0.5220 -0.3014 0.7980
vn 0.8660 -0.5000 -0.0000
vn -0.7628 0.4404 -0.4735
vn -0.9063 0.0000 0.4227
vn -0.2516 -0.0000 0.9678
vn 0.6027 -0.0000 0.7980
vn -0.8808 -0.0000 -0.4735
vn -0.7849 -0.4531 0.4227
vn -0.2179 -0.1258 0.9678
vn 0.5220 0.3014 0.7980
vn 0.8660 0.5000 -0.0000
vn -0.7628 -0.4404 -0.4735
vn -0.4531 -0.7849 0.4227
vn -0.1258 -0.2179 0.9678
vn 0.3014 0.5220 0.7980
vn 0.5000 0.8660 0.0000
vn -0.4404 -0.7628 -0.4735
vn -0.0000 -0.9063 0.4227
vn -0.0000 -0.2516 0.9678
vn -0.0000 0.6027 0.7980
vn -0.0000 -0.8808 -0.4735
vn 0.4531 -0.7849 0.4227
vn 0.1258 -0.2179 0.9678
vn -0.3014 0.5220 0.7980
vn -0.5000 0.8660 -0.0000
vn 0.4404 -0.7628 -0.4735
vn 0.7849 -0.4531 0.4227
vn 0.2179 -0.1258 0.9678
vn -0.5220 0.3014 0.7980
vn -0.8660 0.5000 0.0000
vn 0.7628 -0.4404 -0.4735
usemtl texture
s 1
f 15/1/1 17/2/1 4/3/1 2/4/1
f 21/5/2 23/6/2 18/7/2 14/8/2
f 22/9/3 10/10/3 5/11/3 16/12/3
f 3/13/4 6/14/4 12/15/4 8/16/4
f 9/17/5 11/18/5 24/19/5 20/20/5
f 1/21/6 2/22/7 3/23/8
f 4/24/9 5/25/10 6/26/11
f 7/27/12 8/28/13 9/29/14
f 10/30/15 11/31/16 12/32/17
f 13/33/18 14/34/19 15/35/20
f 16/36/21 17/37/22 18/38/23
f 19/39/24 20/40/25 21/41/26
f 22/42/27 23/43/28 24/44/29
f 7/27/12 1/21/6 3/23/8 8/28/13
f 2/22/30 4/24/30 6/26/30 3/23/30
f 5/25/10 10/30/15 12/32/17 6/26/11
f 11/31/31 9/29/31 8/28/31 12/32/31
f 19/39/24 7/27/12 9/29/14 20/40/25
f 10/30/15 22/42/27 24/44/29 11/31/16
f 23/43/32 21/41/32 20/40/32 24/44/32
f 13/33/18 19/39/24 21/41/26 14/34/19
f 22/42/27 16/36/21 18/38/23 23/43/28
f 17/37/33 15/35/33 14/34/33 18/38/33
f 1/21/6 13/33/18 15/35/20 2/22/7
f 16/36/21 5/25/10 4/24/9 17/37/22
f 7/45/34 19/46/34 13/47/34 1/48/34
f 39/49/2 41/50/2 28/51/2 26/52/2
f 45/53/5 47/54/5 42/55/5 38/56/5
f 46/57/3 34/58/3 29/59/3 40/60/3
f 27/61/1 30/62/1 36/63/1 32/64/1
f 33/65/4 35/66/4 48/67/4 44/68/4
f 25/69/18 26/70/19 27/71/20
f 28/72/23 29/73/21 30/74/22
f 31/75/6 32/76/7 33/77/8
f 34/78/10 35/79/11 36/80/9
f 37/81/24 38/82/25 39/83/26
f 40/84/27 41/85/28 42/86/29
f 43/87/12 44/88/13 45/89/14
f 46/90/15 47/91/16 48/92/17
f 31/75/6 25/69/18 27/71/20 32/76/7
f 26/70/33 28/72/33 30/74/33 27/71/33
f 29/73/21 34/78/10 36/80/9 30/74/22
f 35/79/30 33/77/30 32/76/30 36/80/30
f 43/87/12 31/75/6 33/77/8 44/88/13
f 34/78/10 46/90/15 48/92/17 35/79/11
f 47/91/31 45/89/31 44/88/31 48/92/31
f 37/81/24 43/87/12 45/89/14 38/82/25
f 46/90/15 40/84/27 42/86/29 47/91/16
f 41/85/32 39/83/32 38/82/32 42/86/32
f 25/69/18 37/81/24 39/83/26 26/70/19
f 40/84/27 29/73/21 28/72/23 41/85/28
f 31/93/34 43/94/34 37/95/34 25/96/34
f 60/97/24 59/98/25 58/99/26
f 51/100/15 57/101/27 55/102/29 50/103/16
f 50/103/31 52/104/31 53/105/31 49/106/31
f 62/107/30 64/108/30 65/109/30 61/110/30
f 57/101/27 56/111/28 55/102/29
f 63/112/10 62/107/11 61/110/9
f 69/113/23 68/114/21 67/115/22
f 57/101/27 68/114/21 69/113/23 56/111/28
f 72/116/18 60/97/24 58/99/26 71/117/19
f 63/112/10 51/100/15 49/106/17 62/107/11
f 66/118/6 65/109/7 64/108/8
f 51/100/15 50/103/16 49/106/17
f 68/114/21 63/112/10 61/110/9 67/115/22
f 66/118/6 72/116/18 70/119/20 65/109/7
f 66/120/34 54/121/34 60/122/34 72/123/34
f 56/111/32 58/99/32 59/98/32 55/102/32
f 71/117/33 69/113/33 67/115/33 70/119/33
f 60/97/24 54/124/12 52/104/14 59/98/25
f 54/124/12 66/118/6 64/108/8 53/105/13
f 52/125/5 50/126/5 55/127/5 59/128/5
f 58/129/2 56/130/2 69/131/2 71/132/2
f 72/116/18 71/117/19 70/119/20
f 64/133/4 62/134/4 49/135/4 53/136/4
f 51/137/3 63/138/3 68/139/3 57/140/3
f 70/141/1 67/142/1 61/143/1 65/144/1
f 54/124/12 53/105/13 52/104/14
f 85/145/1 87/146/1 76/147/1 74/148/1
f 90/149/2 92/150/2 88/151/2 84/152/2
f 91/153/3 81/154/3 77/155/3 86/156/3
f 75/157/4 78/158/4 82/159/4 80/160/4
f 73/161/6 74/162/7 75/163/8
f 76/164/9 77/165/10 78/166/11
f 83/167/18 84/168/19 85/169/20
f 86/170/21 87/171/22 88/172/23
f 79/173/35 73/161/6 75/163/8 80/174/35
f 74/162/30 76/164/30 78/166/30 75/163/30
f 77/165/10 81/175/36 82/176/36 78/166/11
f 83/167/18 89/177/37 90/178/37 84/168/19
f 91/179/38 86/170/21 88/172/23 92/180/38
f 87/171/33 85/169/33 84/168/33 88/172/33
f 73/161/6 83/167/18 85/169/20 74/162/7
f 86/170/21 77/165/10 76/164/9 87/171/22
f 79/181/34 89/182/34 83/183/34 73/184/34
f 107/185/2 109/186/2 96/187/2 94/188/2
f 113/189/5 115/190/5 110/191/5 106/192/5
f 114/193/3 102/194/3 97/195/3 108/196/3
f 95/197/1 98/198/1 104/199/1 100/200/1
f 101/201/4 103/202/4 116/203/4 112/204/4
f 93/205/18 94/206/19 95/207/20
f 96/208/23 97/209/21 98/210/22
f 99/211/6 100/212/7 101/213/8
f 102/214/10 103/215/11 104/216/9
f 105/217/24 106/218/25 107/219/26
f 108/220/27 109/221/28 110/222/29
f 111/223/12 112/224/13 113/225/14
f 114/226/15 115/227/16 116/228/17
f 99/211/6 93/205/18 95/207/20 100/212/7
f 94/206/33 96/208/33 98/210/33 95/207/33
f 97/209/21 102/214/10 104/216/9 98/210/22
f 103/215/30 101/213/30 100/212/30 104/216/30
f 111/223/12 99/211/6 101/213/8 112/224/13
f 102/214/10 114/226/15 116/228/17 103/215/11
f 115/227/31 113/225/31 112/224/31 116/228/31
f 105/217/24 111/223/12 113/225/14 106/218/25
f 114/226/15 108/220/27 110/222/29 115/227/16
f 109/221/32 107/219/32 106/218/32 110/222/32
f 93/205/18 105/217/24 107/219/26 94/206/19
f 108/220/27 97/209/21 96/208/23 109/221/28
f 99/229/34 111/230/34 105/231/34 93/232/34
f 117/233/39 118/234/39 120/235/3 119/236/3
f 123/237/34 124/238/34 122/239/40 121/240/40
f 126/241/41 127/242/41 118/234/39 117/233/39
f 119/243/4 123/237/4 121/240/4 117/244/4
f 124/238/2 120/245/2 118/246/2 122/239/2
f 117/244/4 121/240/4 125/247/4 126/248/4
f 122/239/2 118/246/2 127/249/2 128/250/2
f 127/249/1 126/248/1 125/247/1 128/250/1
f 121/240/40 122/239/40 128/250/42 125/247/42
f 129/251/43 135/252/44 136/253/44 130/254/43
f 130/255/45 136/256/46 137/257/46 131/258/45
f 131/259/47 137/260/48 138/261/48 132/262/47
f 132/263/4 138/264/49 139/265/49 133/266/4
f 134/267/50 140/268/51 135/252/51 129/251/50
f 135/252/44 141/269/52 142/270/53 136/253/44
f 136/256/46 142/271/54 143/272/55 137/257/46
f 137/260/48 143/273/56 144/274/57 138/261/48
f 138/264/49 144/275/35 145/276/35 139/265/49
f 140/268/51 146/277/58 141/269/59 135/252/51
f 149/278/60 150/279/61 144/274/57 143/273/56
f 144/275/34 150/280/34 151/281/34 145/276/34
f 141/269/52 147/282/62 148/283/63 142/270/53
f 152/284/64 147/282/65 141/269/59 146/277/58
f 147/282/62 153/285/66 154/286/66 148/283/63
f 148/287/67 154/288/68 155/289/68 149/290/69
f 149/278/60 155/291/70 156/292/70 150/279/61
f 150/280/37 156/293/71 157/294/71 151/281/37
f 152/284/64 158/295/72 153/285/72 147/282/65
f 153/285/66 159/296/73 160/297/73 154/286/66
f 154/288/68 160/298/74 161/299/74 155/289/68
f 155/291/70 161/300/75 162/301/75 156/292/70
f 156/293/71 162/302/2 163/303/2 157/294/71
f 158/295/72 164/304/76 159/296/76 153/285/72
f 159/296/73 165/305/77 166/306/77 160/297/73
f 160/298/74 166/307/78 167/308/78 161/299/74
f 161/300/75 167/309/79 168/310/79 162/301/75
f 162/302/2 168/311/80 169/312/80 163/303/2
f 164/304/76 170/313/81 165/305/81 159/296/76
f 165/305/77 171/314/82 172/315/82 166/306/77
f 166/307/78 172/316/83 173/317/83 167/308/78
f 167/309/79 173/318/84 174/319/84 168/310/79
f 168/311/80 174/320/85 175/321/85 169/312/80
f 170/313/81 176/322/86 171/314/86 165/305/81
f 171/314/82 177/323/87 178/324/87 172/315/82
f 172/316/83 178/325/88 179/326/88 173/317/83
f 173/318/84 179/327/89 180/328/89 174/319/84
f 174/320/85 180/329/3 181/330/3 175/321/85
f 176/322/86 182/331/90 177/323/90 171/314/86
f 177/323/87 183/332/91 184/333/91 178/324/87
f 178/325/88 184/334/92 185/335/92 179/326/88
f 179/327/89 185/336/93 186/337/93 180/328/89
f 180/329/3 186/338/94 187/339/94 181/330/3
f 182/331/90 188/340/95 183/332/95 177/323/90
f 183/332/91 189/341/96 190/342/96 184/333/91
f 184/334/92 190/343/97 191/344/97 185/335/92
f 185/336/93 191/345/98 192/346/98 186/337/93
f 186/338/94 192/347/99 193/348/99 187/339/94
f 188/340/95 194/349/100 189/341/100 183/332/95
f 189/341/96 129/251/43 130/254/43 190/342/96
f 190/343/97 130/255/45 131/258/45 191/344/97
f 191/345/98 131/259/47 132/262/47 192/346/98
f 192/347/99 132/263/4 133/266/4 193/348/99
f 194/349/100 134/267/50 129/251/50 189/341/100
f 148/287/67 149/290/69 143/272/55 142/271/54
