# Blender v3.4.1 OBJ File: 'Dungeon_Remastered_1.1_Export.blend'
# www.blender.org
mtllib box_large.mtl
o box_large
v -0.750000 0.236187 0.513813
v -0.750000 1.263813 0.513813
v -0.750000 1.263813 -0.513813
v -0.750000 0.236187 -0.513813
v -0.513813 0.236187 -0.750000
v -0.513813 1.263813 -0.750000
v 0.513813 1.263813 -0.750000
v 0.513813 0.236187 -0.750000
v 0.750000 0.236187 -0.513813
v 0.750000 1.263813 -0.513813
v 0.750000 1.263813 0.513813
v 0.750000 0.236187 0.513813
v 0.513813 0.236187 0.750000
v 0.513813 1.263813 0.750000
v -0.513813 1.263813 0.750000
v -0.513813 0.236187 0.750000
v -0.513813 0.000000 -0.513813
v 0.513813 0.000000 -0.513813
v 0.513813 -0.000000 0.513813
v -0.513813 -0.000000 0.513813
v 0.513813 1.500000 -0.513813
v -0.513813 1.500000 -0.513813
v -0.513813 1.500000 0.513813
v 0.513813 1.500000 0.513813
v -0.566499 0.272564 0.477436
v -0.566499 1.227436 0.477437
v -0.566499 1.227436 -0.477436
v -0.566499 0.272564 -0.477436
v -0.477436 0.272564 -0.566499
v -0.477436 1.227436 -0.566499
v 0.477436 1.227436 -0.566499
v 0.477436 0.272564 -0.566499
v 0.566499 0.272564 -0.477436
v 0.566499 1.227436 -0.477436
v 0.566499 1.227436 0.477437
v 0.566499 0.272564 0.477436
v 0.477436 0.272564 0.566499
v 0.477436 1.227436 0.566500
v -0.477436 1.227436 0.566500
v -0.477436 0.272564 0.566499
v -0.477436 0.183501 -0.477436
v 0.477436 0.183501 -0.477436
v 0.477436 0.183501 0.477436
v -0.477436 0.183501 0.477436
v 0.477436 1.316499 -0.477436
v -0.477436 1.316499 -0.477436
v -0.477436 1.316499 0.477437
v 0.477436 1.316499 0.477437
v 0.159145 0.272564 -0.566499
v -0.159145 0.272564 -0.566499
v -0.159145 1.227436 -0.566499
v 0.159145 1.227436 -0.566499
v -0.159145 0.272564 0.566499
v 0.159145 0.272564 0.566499
v 0.159145 1.227436 0.566500
v -0.159145 1.227436 0.566500
v -0.159145 1.316499 -0.477436
v 0.159145 1.316499 -0.477436
v 0.159145 1.316499 0.477437
v -0.159145 1.316499 0.477437
v 0.159145 0.183501 -0.477436
v -0.159145 0.183501 -0.477436
v -0.159145 0.183501 0.477436
v 0.159145 0.183501 0.477436
v 0.566499 0.909146 -0.477436
v 0.566499 0.590855 -0.477436
v 0.566499 0.909145 0.477437
v 0.566499 0.590854 0.477437
v -0.566499 0.590854 0.477437
v -0.566499 0.909145 0.477437
v -0.566499 0.909146 -0.477436
v -0.566499 0.590855 -0.477436
v 0.750000 1.425000 0.675000
v 0.675000 1.500000 0.675000
v 0.675000 1.425000 0.750000
v 0.675000 1.500000 -0.675000
v 0.750000 1.425000 -0.675000
v 0.675000 1.425000 -0.750000
v -0.675000 1.500000 -0.675000
v -0.675000 1.425000 -0.750000
v -0.750000 1.425000 -0.675000
v -0.675000 0.075000 -0.750000
v -0.675000 0.000000 -0.675000
v -0.750000 0.075000 -0.675000
v 0.750000 0.075000 -0.675000
v 0.675000 0.000000 -0.675000
v 0.675000 0.075000 -0.750000
v 0.675000 0.075000 0.750000
v 0.675000 -0.000000 0.675000
v 0.750000 0.075000 0.675000
v -0.675000 0.075000 0.750000
v -0.750000 0.075000 0.675000
v -0.675000 -0.000000 0.675000
v -0.675000 1.425000 0.750000
v -0.675000 1.500000 0.675000
v -0.750000 1.425000 0.675000
vt 0.210171 0.868941
vt 0.208123 0.866442
vt 0.190192 0.866442
vt 0.210171 0.782127
vt 0.208123 0.794732
vt 0.190192 0.794731
vt 0.223476 0.855510
vt 0.223476 0.855510
vt 0.213140 0.858008
vt 0.213140 0.858008
vt 0.138976 0.868941
vt 0.138976 0.868941
vt 0.149312 0.866442
vt 0.149312 0.866442
vt 0.152281 0.855510
vt 0.154330 0.858008
vt 0.172261 0.858008
vt 0.210171 0.855510
vt 0.208123 0.858008
vt 0.190192 0.858008
vt 0.152281 0.904218
vt 0.154330 0.891613
vt 0.172261 0.891613
vt 0.138976 0.817404
vt 0.149312 0.819903
vt 0.149312 0.841767
vt 0.223476 0.868941
vt 0.223476 0.868941
vt 0.213140 0.866442
vt 0.213140 0.866442
vt 0.152281 0.782127
vt 0.152281 0.782127
vt 0.154330 0.794732
vt 0.154330 0.794732
vt 0.152281 0.868941
vt 0.154330 0.866442
vt 0.172261 0.866442
vt 0.210171 0.904218
vt 0.210171 0.904218
vt 0.208123 0.891613
vt 0.208123 0.891613
vt 0.223476 0.817404
vt 0.213140 0.819903
vt 0.213140 0.841767
vt 0.210171 0.782127
vt 0.208123 0.794732
vt 0.152281 0.904218
vt 0.154330 0.891613
vt 0.172261 0.794731
vt 0.190192 0.891613
vt 0.138976 0.887994
vt 0.149312 0.885495
vt 0.149312 0.863631
vt 0.138976 0.855510
vt 0.138976 0.855510
vt 0.149312 0.858008
vt 0.149312 0.858008
vt 0.223476 0.887994
vt 0.213140 0.885495
vt 0.213140 0.863631
vt 0.215669 0.942324
vt 0.146783 0.942324
vt 0.152281 0.942324
vt 0.210171 0.942324
vt 0.223476 0.918119
vt 0.223476 0.918119
vt 0.223476 0.907047
vt 0.223476 0.907047
vt 0.143201 0.829752
vt 0.143201 0.913751
vt 0.152281 0.907047
vt 0.152281 0.836457
vt 0.219251 0.801180
vt 0.219251 0.801180
vt 0.210171 0.801180
vt 0.210171 0.801180
vt 0.146783 0.825384
vt 0.215669 0.825384
vt 0.210171 0.836457
vt 0.152281 0.836457
vt 0.223476 0.825384
vt 0.223476 0.825384
vt 0.223476 0.836457
vt 0.223476 0.836457
vt 0.146783 0.801180
vt 0.215669 0.801180
vt 0.152281 0.801180
vt 0.138976 0.913751
vt 0.138976 0.829752
vt 0.138976 0.836457
vt 0.138976 0.907047
vt 0.540387 0.919800
vt 0.518044 0.970922
vt 0.518044 0.970922
vt 0.540387 0.919800
vt 0.591318 0.851844
vt 0.591318 0.851844
vt 0.591318 0.939511
vt 0.591318 0.939511
vt 0.562726 0.825945
vt 0.585066 0.774823
vt 0.585066 0.774823
vt 0.562726 0.825945
vt 0.511795 0.851844
vt 0.511795 0.851844
vt 0.511795 0.939511
vt 0.511795 0.939511
vt 0.518044 0.825945
vt 0.540387 0.774823
vt 0.540387 0.774823
vt 0.518044 0.825945
vt 0.540387 0.825945
vt 0.562726 0.774823
vt 0.562726 0.774823
vt 0.540387 0.825945
vt 0.585066 0.919800
vt 0.562726 0.970922
vt 0.562726 0.970922
vt 0.585066 0.919800
vt 0.562726 0.919800
vt 0.540387 0.970922
vt 0.540387 0.970922
vt 0.562726 0.919800
vt 0.219251 0.942324
vt 0.219251 0.942324
vt 0.210171 0.942324
vt 0.143201 0.913751
vt 0.143201 0.829752
vt 0.152281 0.907047
vt 0.215669 0.801180
vt 0.146783 0.801180
vt 0.152281 0.801180
vt 0.143201 0.801180
vt 0.143201 0.801180
vt 0.138976 0.825384
vt 0.138976 0.825384
vt 0.138976 0.836457
vt 0.219251 0.913751
vt 0.219251 0.829752
vt 0.210171 0.836457
vt 0.210171 0.907047
vt 0.223476 0.829752
vt 0.223476 0.913751
vt 0.219251 0.829752
vt 0.219251 0.913751
vt 0.210171 0.907047
vt 0.172261 0.891613
vt 0.190192 0.794731
vt 0.210171 0.868941
vt 0.190192 0.866442
vt 0.190192 0.891613
vt 0.152281 0.855510
vt 0.172261 0.858008
vt 0.210171 0.855510
vt 0.190192 0.858008
vt 0.172261 0.794731
vt 0.152281 0.868941
vt 0.172261 0.866442
vt 0.208123 0.866442
vt 0.154330 0.858008
vt 0.208123 0.858008
vt 0.154330 0.866442
vt 0.540387 0.902130
vt 0.540387 0.792493
vt 0.562726 0.843615
vt 0.562726 0.953252
vt 0.562726 0.902130
vt 0.562726 0.792493
vt 0.585066 0.843615
vt 0.585066 0.953252
vt 0.540387 0.843615
vt 0.540387 0.953252
vt 0.562726 0.902130
vt 0.562726 0.792493
vt 0.518044 0.843615
vt 0.518044 0.953252
vt 0.540387 0.902130
vt 0.540387 0.792493
vt 0.511795 0.806234
vt 0.511795 0.806234
vt 0.511795 0.893901
vt 0.511795 0.893901
vt 0.511795 0.829039
vt 0.511795 0.829039
vt 0.511795 0.916706
vt 0.511795 0.916706
vt 0.591318 0.806234
vt 0.591318 0.806234
vt 0.591318 0.893901
vt 0.591318 0.893901
vt 0.591318 0.829039
vt 0.591318 0.829039
vt 0.591318 0.916706
vt 0.591318 0.916706
vt 0.562726 0.843615
vt 0.562726 0.953252
vt 0.585066 0.902130
vt 0.585066 0.792493
vt 0.518044 0.902130
vt 0.518044 0.792493
vt 0.540387 0.843615
vt 0.540387 0.953252
vt 0.138976 0.829752
vt 0.138976 0.913751
vt 0.138976 0.907047
vt 0.215669 0.918119
vt 0.146783 0.918119
vt 0.146783 0.918119
vt 0.215669 0.918119
vt 0.138976 0.918119
vt 0.138976 0.918119
vt 0.215669 0.825384
vt 0.146783 0.825384
vt 0.143201 0.942324
vt 0.143201 0.942324
vt 0.152281 0.942324
vt 0.223476 0.913751
vt 0.223476 0.829752
vt 0.223476 0.817404
vt 0.213140 0.841767
vt 0.152281 0.817404
vt 0.152281 0.887994
vt 0.154330 0.885495
vt 0.154330 0.819903
vt 0.138976 0.817404
vt 0.149312 0.841767
vt 0.152281 0.887994
vt 0.152281 0.817404
vt 0.154330 0.819903
vt 0.154330 0.885495
vt 0.223476 0.887994
vt 0.213140 0.863631
vt 0.210171 0.887994
vt 0.210171 0.817404
vt 0.208123 0.819903
vt 0.208123 0.885495
vt 0.138976 0.887994
vt 0.149312 0.863631
vt 0.210171 0.817404
vt 0.210171 0.887994
vt 0.208123 0.885495
vt 0.208123 0.819903
vt 0.213140 0.819903
vt 0.213140 0.885495
vt 0.149312 0.885495
vt 0.149312 0.819903
vt 0.223476 0.956225
vt 0.223476 0.961377
vt 0.223476 0.958801
vt 0.223476 0.961377
vt 0.223476 0.956225
vt 0.223476 0.958801
vt 0.138976 0.961377
vt 0.138976 0.958801
vt 0.138976 0.956225
vt 0.143201 0.839285
vt 0.143201 0.839285
vt 0.138976 0.839285
vt 0.223476 0.863490
vt 0.223476 0.858338
vt 0.223476 0.860914
vt 0.223476 0.863490
vt 0.223476 0.858338
vt 0.223476 0.863490
vt 0.143201 0.839285
vt 0.138976 0.839285
vt 0.143201 0.839285
vt 0.138976 0.956225
vt 0.138976 0.961377
vt 0.138976 0.956225
vt 0.219251 0.951857
vt 0.219251 0.867858
vt 0.223476 0.867858
vt 0.223476 0.951857
vt 0.146783 0.839285
vt 0.215669 0.839285
vt 0.214527 0.839285
vt 0.147925 0.839285
vt 0.143201 0.867858
vt 0.143201 0.951857
vt 0.138976 0.951857
vt 0.138976 0.867858
vt 0.214527 0.961377
vt 0.147925 0.961377
vt 0.146783 0.956225
vt 0.215669 0.956225
vt 0.143201 0.951857
vt 0.143201 0.867858
vt 0.138976 0.867858
vt 0.138976 0.951857
vt 0.146783 0.980430
vt 0.215669 0.980430
vt 0.214527 0.980430
vt 0.147925 0.980430
vt 0.223476 0.951857
vt 0.223476 0.867858
vt 0.219251 0.867858
vt 0.219251 0.951857
vt 0.215669 0.839285
vt 0.146783 0.839285
vt 0.147925 0.839285
vt 0.214527 0.839285
vt 0.146783 0.942324
vt 0.215669 0.942324
vn 0.0000 -0.9809 -0.1945
vn 0.0000 -0.1945 0.9809
vn 0.1945 0.9809 0.0000
vn -0.1945 -0.9809 0.0000
vn 0.0000 0.9809 -0.1945
vn 0.0000 0.9809 0.1945
vn 0.0000 0.1945 0.9809
vn -0.1945 -0.0000 0.9809
vn 0.1945 -0.9809 0.0000
vn 0.9809 -0.1945 -0.0000
vn 0.0000 -0.9809 0.1945
vn -0.9809 0.1945 0.0000
vn 0.1945 0.0000 -0.9809
vn -0.9809 -0.1945 -0.0000
vn 0.9809 0.1945 0.0000
vn 0.0000 -0.1945 -0.9809
vn 0.0000 0.1945 -0.9809
vn -0.1945 0.0000 -0.9809
vn -0.1945 0.9809 0.0000
vn 0.1945 -0.0000 0.9809
vn 0.0000 1.0000 0.0000
vn 0.8756 0.3416 -0.3416
vn 0.8756 0.3416 0.3416
vn 1.0000 0.0000 0.0000
vn -0.3416 -0.3416 -0.8756
vn -0.3416 0.3416 -0.8756
vn -0.0000 0.0000 -1.0000
vn 0.3416 -0.8756 -0.3416
vn 0.3416 -0.8756 0.3416
vn -0.0000 -1.0000 -0.0000
vn -0.3416 -0.3416 0.8756
vn 0.3416 -0.3416 0.8756
vn 0.0000 -0.0000 1.0000
vn 0.8756 -0.3416 0.3416
vn 0.8756 -0.3416 -0.3416
vn -0.3416 -0.8756 -0.3416
vn -0.8756 0.3416 -0.3416
vn -0.8756 -0.3416 -0.3416
vn -1.0000 -0.0000 0.0000
vn -0.3416 0.3416 0.8756
vn -0.3416 -0.8756 0.3416
vn -0.8756 -0.3416 0.3416
vn 0.3416 0.3416 -0.8756
vn 0.3416 -0.3416 -0.8756
vn 0.3416 0.3416 0.8756
vn -0.8756 0.3416 0.3416
vn 0.9809 0.0000 -0.1945
vn 0.9809 -0.0000 0.1945
vn -0.9809 0.0000 -0.1945
vn -0.9809 -0.0000 0.1945
vn 0.4606 0.7588 0.4606
vn 0.4606 0.7588 -0.4606
vn -0.4606 0.7588 -0.4606
vn -0.4606 0.7588 0.4606
usemtl texture
s 1
f 7/1/1 31/2/1 52/3/1
f 18/4/2 42/5/2 61/6/2
f 12/7/3 9/8/3 33/9/3 36/10/3
f 2/11/4 3/12/4 27/13/4 26/14/4
f 5/15/5 29/16/5 50/17/5
f 13/18/6 37/19/6 54/20/6
f 22/21/7 46/22/7 57/23/7
f 4/24/8 28/25/8 72/26/8
f 10/27/9 11/28/9 35/29/9 34/30/9
f 20/31/10 17/32/10 41/33/10 44/34/10
f 15/35/11 39/36/11 56/37/11
f 24/38/12 21/39/12 45/40/12 48/41/12
f 12/42/13 36/43/13 68/44/13
f 18/4/14 19/45/14 43/46/14 42/5/14
f 22/21/15 23/47/15 47/48/15 46/22/15
f 20/31/16 44/34/16 63/49/16
f 24/38/17 48/41/17 59/50/17
f 2/51/18 26/52/18 70/53/18
f 4/54/19 1/55/19 25/56/19 28/57/19
f 10/58/20 34/59/20 65/60/20
f 76/61/21 79/62/21 22/63/21 21/64/21
f 77/65/22 73/66/23 11/67/24 10/68/24
f 82/69/25 80/70/26 6/71/27 5/72/27
f 86/73/28 89/74/29 19/75/30 18/76/30
f 91/77/31 88/78/32 13/79/33 16/80/33
f 90/81/34 85/82/35 9/83/24 12/84/24
f 83/85/36 86/86/28 18/76/30 17/87/30
f 81/88/37 84/89/38 4/90/39 3/91/39
f 57/92/21 46/93/21 47/94/21 60/95/21
f 67/96/24 65/97/24 34/98/24 35/99/24
f 61/100/30 42/101/30 43/102/30 64/103/30
f 71/104/39 70/105/39 26/106/39 27/107/39
f 41/108/30 62/109/30 63/110/30 44/111/30
f 62/112/30 61/113/30 64/114/30 63/115/30
f 45/116/21 58/117/21 59/118/21 48/119/21
f 58/120/21 57/121/21 60/122/21 59/123/21
f 74/124/21 76/125/21 21/64/21 24/126/21
f 94/127/40 91/128/31 16/80/33 15/129/33
f 89/130/29 93/131/41 20/132/30 19/75/30
f 93/133/41 83/134/36 17/87/30 20/132/30
f 84/135/38 92/136/42 1/137/39 4/90/39
f 78/138/43 87/139/44 8/140/27 7/141/27
f 85/142/35 77/143/22 10/68/24 9/83/24
f 88/144/32 75/145/45 14/146/33 13/79/33
f 23/47/17 24/38/17 59/50/17 60/147/17
f 19/45/16 20/31/16 63/49/16 64/148/16
f 14/149/11 15/35/11 56/37/11 55/150/11
f 21/39/7 22/21/7 57/23/7 58/151/7
f 16/152/6 13/18/6 54/20/6 53/153/6
f 8/154/5 5/15/5 50/17/5 49/155/5
f 17/32/2 18/4/2 61/6/2 62/156/2
f 6/157/1 7/1/1 52/3/1 51/158/1
f 38/159/11 14/149/11 55/150/11
f 40/160/6 16/152/6 53/153/6
f 43/46/16 19/45/16 64/148/16
f 41/33/2 17/32/2 62/156/2
f 32/161/5 8/154/5 49/155/5
f 30/162/1 6/157/1 51/158/1
f 45/40/7 21/39/7 58/151/7
f 47/48/17 23/47/17 60/147/17
f 56/163/33 53/164/33 54/165/33 55/166/33
f 55/167/33 54/168/33 37/169/33 38/170/33
f 50/171/27 51/172/27 52/173/27 49/174/27
f 29/175/27 30/176/27 51/177/27 50/178/27
f 28/179/39 25/180/39 69/181/39 72/182/39
f 72/183/39 69/184/39 70/185/39 71/186/39
f 36/187/24 33/188/24 66/189/24 68/190/24
f 68/191/24 66/192/24 65/193/24 67/194/24
f 49/195/27 52/196/27 31/197/27 32/198/27
f 39/199/33 40/200/33 53/201/33 56/202/33
f 92/203/42 96/204/46 2/205/39 1/137/39
f 75/206/45 94/207/40 15/129/33 14/146/33
f 80/208/26 78/209/43 7/141/27 6/71/27
f 96/210/46 81/211/37 3/91/39 2/205/39
f 87/212/44 82/213/25 5/72/27 8/140/27
f 79/214/21 95/215/21 23/216/21 22/63/21
f 73/217/23 90/218/34 12/84/24 11/67/24
f 9/219/20 10/58/20 65/60/20 66/220/20
f 5/221/47 6/222/47 30/223/47 29/224/47
f 1/225/18 2/51/18 70/53/18 69/226/18
f 15/227/48 16/228/48 40/229/48 39/230/48
f 11/231/13 12/42/13 68/44/13 67/232/13
f 7/233/49 8/234/49 32/235/49 31/236/49
f 3/237/8 4/24/8 72/26/8 71/238/8
f 13/239/50 14/240/50 38/241/50 37/242/50
f 33/243/20 9/219/20 66/220/20
f 35/244/13 11/231/13 67/232/13
f 27/245/8 3/237/8 71/238/8
f 25/246/18 1/225/18 69/226/18
f 73/247/23 74/248/51 75/249/45
f 76/250/52 77/251/22 78/252/43
f 79/253/53 80/254/26 81/255/37
f 82/256/25 83/257/36 84/258/38
f 85/259/35 86/260/28 87/261/44
f 88/262/32 89/263/29 90/264/34
f 91/265/31 92/266/42 93/267/41
f 94/268/40 95/269/54 96/270/46
f 75/271/45 88/272/32 90/273/34 73/274/23
f 93/275/41 89/276/29 88/277/32 91/278/31
f 91/279/31 94/280/40 96/281/46 92/282/42
f 74/283/51 95/284/54 94/285/40 75/286/45
f 95/269/54 79/253/53 81/255/37 96/270/46
f 80/287/26 82/288/25 84/289/38 81/290/37
f 79/291/53 76/292/52 78/293/43 80/294/26
f 77/295/22 85/296/35 87/297/44 78/298/43
f 83/257/36 93/267/41 92/266/42 84/258/38
f 89/263/29 86/260/28 85/259/35 90/264/34
f 86/299/28 83/300/36 82/301/25 87/302/44
f 76/250/52 74/248/51 73/247/23 77/251/22
f 95/303/21 74/304/21 24/126/21 23/216/21
