# Blender v3.4.1 OBJ File: 'Dungeon_Remastered_1.1_Export.blend'
# www.blender.org
mtllib post.mtl
o post
v -0.150000 2.450000 0.150000
v -0.150000 3.575000 0.150000
v 0.150000 3.575000 0.150000
v 0.150000 3.575000 -0.150000
v -0.150000 3.575000 -0.150000
v 0.150000 2.450000 -0.150000
v 0.150000 2.450000 0.150000
v -0.150000 2.450000 -0.150000
v -0.200000 0.025000 0.175000
v -0.175000 0.000000 0.175000
v -0.175000 0.025000 0.200000
v -0.175000 3.975000 0.200000
v -0.175000 4.000000 0.175000
v -0.200000 3.975000 0.175000
v -0.175000 0.000000 -0.175000
v -0.200000 0.025000 -0.175000
v -0.175000 0.025000 -0.200000
v -0.200000 3.975000 -0.175000
v -0.175000 4.000000 -0.175000
v -0.175000 3.975000 -0.200000
v 0.175000 0.000000 0.175000
v 0.200000 0.025000 0.175000
v 0.175000 0.025000 0.200000
v 0.200000 3.975000 0.175000
v 0.175000 4.000000 0.175000
v 0.175000 3.975000 0.200000
v 0.175000 0.000000 -0.175000
v 0.175000 0.025000 -0.200000
v 0.200000 0.025000 -0.175000
v 0.175000 3.975000 -0.200000
v 0.175000 4.000000 -0.175000
v 0.200000 3.975000 -0.175000
v -0.175000 3.625000 0.200000
v -0.200000 3.625000 0.175000
v -0.200000 3.625000 -0.175000
v -0.175000 3.625000 -0.200000
v 0.175000 3.625000 -0.200000
v 0.200000 3.625000 -0.175000
v 0.200000 3.625000 0.175000
v 0.175000 3.625000 0.200000
v -0.200000 2.400000 0.175000
v -0.175000 2.400000 0.200000
v 0.175000 2.400000 0.200000
v 0.200000 2.400000 0.175000
v 0.200000 2.400000 -0.175000
v 0.175000 2.400000 -0.200000
v -0.175000 2.400000 -0.200000
v -0.200000 2.400000 -0.175000
vt 0.549814 0.942737
vt 0.543936 0.942737
vt 0.543936 0.942737
vt 0.549814 0.942737
vt 0.550234 0.810487
vt 0.550234 0.880169
vt 0.550234 0.880169
vt 0.550234 0.810487
vt 0.549394 0.961518
vt 0.549814 0.962985
vt 0.543936 0.962985
vt 0.544356 0.961518
vt 0.543516 0.916110
vt 0.543516 0.926379
vt 0.543516 0.926379
vt 0.543516 0.916110
vt 0.549814 0.810487
vt 0.549814 0.880169
vt 0.543936 0.880169
vt 0.543936 0.810487
vt 0.543936 0.810487
vt 0.543936 0.880169
vt 0.549814 0.880169
vt 0.549814 0.810487
vt 0.544356 0.928511
vt 0.543936 0.927044
vt 0.549814 0.927044
vt 0.549394 0.928511
vt 0.549394 0.928511
vt 0.549814 0.927044
vt 0.543936 0.927044
vt 0.544356 0.928511
vt 0.543516 0.927044
vt 0.543516 0.927044
vt 0.544356 0.961518
vt 0.543936 0.962985
vt 0.549814 0.962985
vt 0.549394 0.961518
vt 0.543936 0.825378
vt 0.549814 0.825378
vt 0.549814 0.825378
vt 0.543936 0.825378
vt 0.543936 0.916110
vt 0.543936 0.926379
vt 0.549814 0.926379
vt 0.549814 0.916110
vt 0.550234 0.916110
vt 0.550234 0.926379
vt 0.550234 0.926379
vt 0.550234 0.916110
vt 0.549814 0.916110
vt 0.549814 0.926379
vt 0.543936 0.926379
vt 0.543936 0.916110
vt 0.549394 0.881636
vt 0.549394 0.914643
vt 0.544356 0.914643
vt 0.544356 0.881636
vt 0.549394 0.881636
vt 0.549394 0.914643
vt 0.544356 0.881636
vt 0.544356 0.914643
vt 0.550234 0.962985
vt 0.550234 0.962985
vt 0.550234 0.927044
vt 0.550234 0.927044
vt 0.543516 0.962985
vt 0.543516 0.962985
vt 0.543516 0.857362
vt 0.543936 0.856628
vt 0.543936 0.857362
vt 0.543936 0.973254
vt 0.543936 0.973987
vt 0.543516 0.973254
vt 0.543936 0.856628
vt 0.543516 0.857362
vt 0.543936 0.857362
vt 0.543516 0.973254
vt 0.543936 0.973987
vt 0.543936 0.973254
vt 0.549814 0.856628
vt 0.550234 0.857362
vt 0.549814 0.857362
vt 0.550234 0.973254
vt 0.549814 0.973987
vt 0.549814 0.973254
vt 0.549814 0.856628
vt 0.549814 0.857362
vt 0.550234 0.857362
vt 0.549814 0.973254
vt 0.549814 0.973987
vt 0.550234 0.973254
vt 0.543516 0.810487
vt 0.543516 0.880169
vt 0.543516 0.880169
vt 0.543516 0.810487
vn 0.0000 1.0000 0.0000
vn 1.0000 0.0000 0.0000
vn 0.4184 -0.8062 0.4184
vn 0.2617 -0.7447 0.6139
vn -0.2617 -0.7447 0.6139
vn -0.4184 -0.8062 0.4184
vn -1.0000 0.0000 0.0000
vn 0.0000 0.0000 1.0000
vn 0.0000 0.0000 -1.0000
vn -0.4184 0.8062 0.4184
vn -0.2617 0.7447 0.6139
vn 0.2617 0.7447 0.6139
vn 0.4184 0.8062 0.4184
vn 0.4184 0.8062 -0.4184
vn 0.2617 0.7447 -0.6139
vn -0.2617 0.7447 -0.6139
vn -0.4184 0.8062 -0.4184
vn -0.6139 0.7447 -0.2617
vn -0.6139 0.7447 0.2617
vn -0.4184 -0.8062 -0.4184
vn -0.2617 -0.7447 -0.6139
vn 0.2617 -0.7447 -0.6139
vn 0.4184 -0.8062 -0.4184
vn 0.0000 -1.0000 0.0000
vn 0.6139 -0.7447 -0.2617
vn 0.6139 -0.7447 0.2617
vn 0.6139 0.7447 0.2617
vn 0.6139 0.7447 -0.2617
vn -0.6139 -0.7447 0.2617
vn -0.6139 -0.7447 -0.2617
vn -0.6861 -0.6861 0.2418
vn -0.4606 -0.7588 0.4606
vn -0.2418 -0.6861 0.6861
vn -0.2418 0.6861 0.6861
vn -0.4606 0.7588 0.4606
vn -0.6861 0.6861 0.2418
vn -0.4606 -0.7588 -0.4606
vn -0.6861 -0.6861 -0.2418
vn -0.2418 -0.6861 -0.6861
vn -0.6861 0.6861 -0.2418
vn -0.4606 0.7588 -0.4606
vn -0.2418 0.6861 -0.6861
vn 0.4606 -0.7588 0.4606
vn 0.6861 -0.6861 0.2418
vn 0.2418 -0.6861 0.6861
vn 0.6861 0.6861 0.2418
vn 0.4606 0.7588 0.4606
vn 0.2418 0.6861 0.6861
vn 0.4606 -0.7588 -0.4606
vn 0.2418 -0.6861 -0.6861
vn 0.6861 -0.6861 -0.2418
vn 0.2418 0.6861 -0.6861
vn 0.4606 0.7588 -0.4606
vn 0.6861 0.6861 -0.2418
vn -0.7071 0.0000 0.7071
vn -0.7071 0.0000 -0.7071
vn 0.7071 0.0000 -0.7071
vn 0.7071 0.0000 0.7071
usemtl texture
s 1
f 31/1/1 19/2/1 13/3/1 25/4/1
f 29/5/2 45/6/2 44/7/2 22/8/2
f 3/9/3 40/10/4 33/11/5 2/12/6
f 34/13/7 14/14/7 18/15/7 35/16/7
f 23/17/8 43/18/8 42/19/8 11/20/8
f 17/21/9 47/22/9 46/23/9 28/24/9
f 1/25/10 42/26/11 43/27/12 7/28/13
f 6/29/14 46/30/15 47/31/16 8/32/17
f 8/32/17 48/33/18 41/34/19 1/25/10
f 5/35/20 36/36/21 37/37/22 4/38/23
f 15/39/24 27/40/24 21/41/24 10/42/24
f 36/43/9 20/44/9 30/45/9 37/46/9
f 38/47/2 32/48/2 24/49/2 39/50/2
f 40/51/8 26/52/8 12/53/8 33/54/8
f 7/55/8 3/56/8 2/57/8 1/58/8
f 6/59/2 4/60/2 3/56/2 7/55/2
f 8/61/9 5/62/9 4/60/9 6/59/9
f 1/58/7 2/57/7 5/62/7 8/61/7
f 4/38/23 38/63/25 39/64/26 3/9/3
f 7/28/13 44/65/27 45/66/28 6/29/14
f 2/12/6 34/67/29 35/68/30 5/35/20
f 9/69/31 10/70/32 11/71/33
f 12/72/34 13/73/35 14/74/36
f 15/75/37 16/76/38 17/77/39
f 18/78/40 19/79/41 20/80/42
f 21/81/43 22/82/44 23/83/45
f 24/84/46 25/85/47 26/86/48
f 27/87/49 28/88/50 29/89/51
f 30/90/52 31/91/53 32/92/54
f 33/11/5 34/67/29 2/12/6
f 35/68/30 36/36/21 5/35/20
f 37/37/22 38/63/25 4/38/23
f 39/64/26 40/10/4 3/9/3
f 41/34/19 42/26/11 1/25/10
f 43/27/12 44/65/27 7/28/13
f 45/66/28 46/30/15 6/29/14
f 47/31/16 48/33/18 8/32/17
f 15/75/37 10/70/32 9/69/31 16/76/38
f 33/11/55 12/72/55 14/74/55 34/67/55
f 13/73/35 19/79/41 18/78/40 14/74/36
f 47/31/56 17/77/56 16/76/56 48/33/56
f 27/87/49 15/75/37 17/77/39 28/88/50
f 19/79/41 31/91/53 30/90/52 20/80/42
f 45/66/57 29/89/57 28/88/57 46/30/57
f 21/81/43 27/87/49 29/89/51 22/82/44
f 31/91/53 25/85/47 24/84/46 32/92/54
f 43/27/58 23/83/58 22/82/58 44/65/58
f 10/70/32 21/81/43 23/83/45 11/71/33
f 25/85/47 13/73/35 12/72/34 26/86/48
f 20/80/56 36/36/56 35/68/56 18/78/56
f 32/92/57 38/63/57 37/37/57 30/90/57
f 26/86/58 40/10/58 39/64/58 24/84/58
f 11/71/55 42/26/55 41/34/55 9/69/55
f 9/93/7 41/94/7 48/95/7 16/96/7
