# Blender v3.4.1 OBJ File: 'Dungeon_Remastered_1.1_Export.blend'
# www.blender.org
mtllib stool_round.mtl
o stool_round
v -0.265000 0.000000 0.265000
v -0.265000 0.025000 0.290000
v -0.290000 0.025000 0.265000
v -0.215000 0.274996 0.240000
v -0.240000 0.274996 0.215000
v -0.265000 0.000000 0.115000
v -0.290000 0.025000 0.115000
v -0.265000 0.025000 0.090000
v -0.215000 0.274996 0.040000
v -0.240000 0.274996 0.065000
v -0.115000 0.000000 0.265000
v -0.090000 0.025000 0.265000
v -0.115000 0.025000 0.290000
v -0.065000 0.274996 0.240000
v -0.040000 0.274996 0.215000
v -0.115000 0.000000 0.115000
v -0.115000 0.025000 0.090000
v -0.090000 0.025000 0.115000
v -0.040000 0.274996 0.065000
v -0.065000 0.274996 0.040000
v 0.180315 0.300760 -0.314645
v 0.155315 0.325759 -0.350001
v 0.172993 0.325759 -0.357323
v 0.180315 0.500000 -0.314645
v 0.172993 0.475757 -0.357323
v 0.155315 0.475757 -0.350001
v 0.180315 0.300760 0.314644
v 0.172992 0.325759 0.357322
v 0.180315 0.500000 0.314644
v 0.172992 0.475757 0.357322
v 0.340902 0.300760 -0.141213
v 0.356829 0.325759 -0.173487
v 0.374985 0.325759 -0.129655
v 0.340902 0.500000 -0.141213
v 0.374985 0.475757 -0.129655
v 0.356829 0.475757 -0.173487
v 0.340902 0.300760 0.141212
v 0.374985 0.325759 0.129653
v 0.356829 0.325759 0.173485
v 0.340902 0.500000 0.141212
v 0.356829 0.475757 0.173485
v 0.374985 0.475757 0.129653
v 0.130315 0.300760 -0.350001
v 0.130315 0.325759 -0.375001
v 0.130315 0.475757 -0.375001
v 0.130315 0.500000 -0.350001
v 0.155315 0.325759 0.349999
v 0.130315 0.325759 0.374999
v 0.130315 0.300760 0.349999
v 0.155315 0.475757 0.349999
v 0.130315 0.500000 0.349999
v 0.130315 0.475757 0.374999
v -0.130345 0.300760 0.349999
v -0.130345 0.325759 0.374999
v -0.130345 0.500000 0.349999
v -0.130345 0.475757 0.374999
v -0.130345 0.325759 -0.375001
v -0.130345 0.300760 -0.350001
v -0.155345 0.475757 -0.350001
v -0.130345 0.500000 -0.350001
v -0.130345 0.475757 -0.375001
v -0.155345 0.325759 0.349999
v -0.173023 0.325759 0.357322
v -0.180345 0.300760 0.314644
v -0.155345 0.475757 0.349999
v -0.180345 0.500000 0.314644
v -0.173023 0.475757 0.357322
v -0.180345 0.300760 -0.314645
v -0.173023 0.325759 -0.357323
v -0.155345 0.325759 -0.350001
v -0.180345 0.500000 -0.314645
v -0.173023 0.475757 -0.357323
v -0.340932 0.300760 0.141212
v -0.356860 0.325759 0.173485
v -0.375015 0.325759 0.129653
v -0.340932 0.500000 0.141212
v -0.375015 0.475757 0.129653
v -0.356860 0.475757 0.173485
v -0.340932 0.300760 -0.141213
v -0.375015 0.325759 -0.129655
v -0.356860 0.325759 -0.173487
v -0.340932 0.500000 -0.141213
v -0.356860 0.475757 -0.173487
v -0.375015 0.475757 -0.129655
v -0.000000 0.269988 -0.000001
v 0.134619 0.324987 -0.325001
v 0.325000 0.324987 -0.134620
v 0.325000 0.324987 0.134619
v 0.134619 0.324987 0.324999
v -0.134620 0.324987 0.324999
v -0.325000 0.324987 0.134619
v -0.325000 0.324987 -0.134620
v -0.134620 0.324987 -0.325001
v 0.134619 0.269988 -0.325001
v 0.325000 0.269988 -0.134620
v 0.325000 0.269988 0.134619
v 0.134619 0.269988 0.324999
v -0.134620 0.269988 0.324999
v -0.325000 0.269988 0.134619
v -0.325000 0.269988 -0.134620
v -0.134620 0.269988 -0.325001
v 0.264992 0.000000 -0.265000
v 0.264992 0.024992 -0.290000
v 0.289992 0.024992 -0.265000
v 0.214992 0.274988 -0.240000
v 0.239992 0.274988 -0.215000
v 0.264992 0.000000 -0.115000
v 0.289992 0.024992 -0.115000
v 0.264992 0.024992 -0.090000
v 0.214992 0.274988 -0.040000
v 0.239992 0.274988 -0.065000
v 0.114992 0.000000 -0.265000
v 0.089992 0.024992 -0.265000
v 0.114992 0.024992 -0.290000
v 0.064992 0.274988 -0.240000
v 0.039992 0.274988 -0.215000
v 0.114992 0.000000 -0.115000
v 0.114992 0.024992 -0.090000
v 0.089992 0.024992 -0.115000
v 0.039992 0.274988 -0.065000
v 0.064992 0.274988 -0.040000
v -0.265008 0.000000 -0.265000
v -0.290008 0.024992 -0.265000
v -0.265008 0.024992 -0.290000
v -0.240008 0.274988 -0.215000
v -0.215008 0.274988 -0.240000
v -0.115008 0.000000 -0.265000
v -0.115008 0.024992 -0.290000
v -0.090008 0.024992 -0.265000
v -0.040008 0.274988 -0.215000
v -0.065008 0.274988 -0.240000
v -0.265008 0.000000 -0.115000
v -0.265008 0.024992 -0.090000
v -0.290008 0.024992 -0.115000
v -0.240008 0.274988 -0.065000
v -0.215008 0.274988 -0.040000
v -0.115008 0.000000 -0.115000
v -0.090008 0.024992 -0.115000
v -0.115008 0.024992 -0.090000
v -0.065008 0.274988 -0.040000
v -0.040008 0.274988 -0.065000
v 0.264993 0.000000 0.265000
v 0.289992 0.024992 0.265000
v 0.264993 0.024992 0.290000
v 0.239992 0.274988 0.215000
v 0.214993 0.274988 0.240000
v 0.114993 0.000000 0.265000
v 0.114993 0.024992 0.290000
v 0.089993 0.024992 0.265000
v 0.039992 0.274988 0.215000
v 0.064992 0.274988 0.240000
v 0.264992 0.000000 0.115000
v 0.264992 0.024992 0.090000
v 0.289992 0.024992 0.115000
v 0.239992 0.274988 0.065000
v 0.214992 0.274988 0.040000
v 0.114992 0.000000 0.115000
v 0.089992 0.024992 0.115000
v 0.114992 0.024992 0.090000
v 0.064992 0.274988 0.040000
v 0.039992 0.274988 0.065000
vt 0.519884 0.832531
vt 0.524704 0.879456
vt 0.524704 0.879456
vt 0.519884 0.832531
vt 0.536755 0.832531
vt 0.541576 0.879456
vt 0.527114 0.879456
vt 0.522293 0.832531
vt 0.522293 0.832531
vt 0.527114 0.879456
vt 0.541574 0.879456
vt 0.536755 0.832531
vt 0.539165 0.832531
vt 0.543986 0.879456
vt 0.543986 0.879456
vt 0.539165 0.832531
vt 0.522293 0.874714
vt 0.519884 0.879406
vt 0.522293 0.879406
vt 0.536755 0.874714
vt 0.536755 0.879406
vt 0.539165 0.879406
vt 0.522293 0.874714
vt 0.522293 0.879406
vt 0.519884 0.879406
vt 0.536755 0.874714
vt 0.539165 0.879406
vt 0.536755 0.879406
vt 0.524704 0.926331
vt 0.527114 0.926331
vt 0.543986 0.926331
vt 0.541574 0.926331
vt 0.541576 0.926331
vt 0.543986 0.926331
vt 0.524704 0.926331
vt 0.527114 0.926331
vt 0.536755 0.796589
vt 0.536755 0.796589
vt 0.522293 0.796589
vt 0.522293 0.796589
vt 0.563558 0.964014
vt 0.581283 0.964014
vt 0.579746 0.968562
vt 0.564263 0.968562
vt 0.583033 0.888984
vt 0.583033 0.917139
vt 0.583033 0.917139
vt 0.583033 0.888984
vt 0.583033 0.964014
vt 0.583033 0.964014
vt 0.579746 0.968562
vt 0.581283 0.935859
vt 0.563558 0.935859
vt 0.564263 0.931166
vt 0.579746 0.931166
vt 0.564263 0.931166
vt 0.561852 0.935859
vt 0.563558 0.935859
vt 0.564263 0.968562
vt 0.563558 0.964014
vt 0.561852 0.964014
vt 0.561852 0.935859
vt 0.561852 0.964014
vt 0.564263 0.884291
vt 0.579746 0.884291
vt 0.579746 0.884291
vt 0.564263 0.884291
vt 0.579746 0.937312
vt 0.564263 0.937312
vt 0.564263 0.937312
vt 0.579746 0.937312
vt 0.581283 0.935859
vt 0.579746 0.931166
vt 0.581283 0.964014
vt 0.581283 0.888984
vt 0.581283 0.917139
vt 0.563558 0.917139
vt 0.563558 0.888984
vt 0.563558 0.888984
vt 0.563558 0.917139
vt 0.581283 0.917139
vt 0.581283 0.888984
vt 0.583033 0.935859
vt 0.583033 0.935859
vt 0.534313 0.884291
vt 0.559443 0.884291
vt 0.559443 0.884291
vt 0.534313 0.884291
vt 0.559443 0.888984
vt 0.559443 0.917139
vt 0.534313 0.917139
vt 0.534313 0.888984
vt 0.559443 0.937312
vt 0.534313 0.937312
vt 0.534313 0.937312
vt 0.559443 0.937312
vt 0.534313 0.888984
vt 0.534313 0.917139
vt 0.559443 0.917139
vt 0.559443 0.888984
vt 0.559443 0.931166
vt 0.559443 0.935859
vt 0.559443 0.964014
vt 0.559443 0.968562
vt 0.559443 0.935859
vt 0.559443 0.931166
vt 0.559443 0.968562
vt 0.559443 0.964014
vt 0.534313 0.931166
vt 0.534313 0.935859
vt 0.531902 0.935859
vt 0.534313 0.968562
vt 0.531902 0.964014
vt 0.534313 0.964014
vt 0.531902 0.935859
vt 0.534313 0.935859
vt 0.534313 0.931166
vt 0.531902 0.964014
vt 0.534313 0.968562
vt 0.534313 0.964014
vt 0.530198 0.888984
vt 0.530198 0.917139
vt 0.512473 0.917139
vt 0.512473 0.888984
vt 0.530198 0.964014
vt 0.512473 0.964014
vt 0.514009 0.968562
vt 0.529492 0.968562
vt 0.510725 0.964014
vt 0.510725 0.964014
vt 0.514009 0.968562
vt 0.512473 0.935859
vt 0.530198 0.935859
vt 0.529492 0.931166
vt 0.514009 0.931166
vt 0.510725 0.888984
vt 0.510725 0.917139
vt 0.510725 0.917139
vt 0.510725 0.888984
vt 0.530198 0.935859
vt 0.529492 0.931166
vt 0.529492 0.968562
vt 0.530198 0.964014
vt 0.514009 0.884291
vt 0.529492 0.884291
vt 0.529492 0.884291
vt 0.514009 0.884291
vt 0.529492 0.937312
vt 0.529492 0.937312
vt 0.514009 0.937312
vt 0.514009 0.937312
vt 0.512473 0.935859
vt 0.514009 0.931166
vt 0.512473 0.964014
vt 0.512473 0.888984
vt 0.512473 0.917139
vt 0.530198 0.917139
vt 0.530198 0.888984
vt 0.510725 0.935859
vt 0.510725 0.935859
vt 0.559857 0.878516
vt 0.559857 0.888838
vt 0.578214 0.888838
vt 0.578214 0.878516
vt 0.578214 0.888838
vt 0.578214 0.878516
vt 0.559857 0.888838
vt 0.559857 0.878516
vt 0.533900 0.888838
vt 0.533900 0.878516
vt 0.515546 0.888838
vt 0.515546 0.878516
vt 0.515546 0.888838
vt 0.515546 0.878516
vt 0.533900 0.888838
vt 0.533900 0.878516
vt 0.546878 0.847266
vt 0.559857 0.847266
vt 0.578214 0.847266
vt 0.578214 0.847266
vt 0.559857 0.847266
vt 0.533900 0.847266
vt 0.515546 0.847266
vt 0.515546 0.847266
vt 0.533900 0.847266
vt 0.519884 0.832531
vt 0.524704 0.879456
vt 0.524704 0.879456
vt 0.519884 0.832531
vt 0.536755 0.832531
vt 0.541576 0.879456
vt 0.527114 0.879456
vt 0.522293 0.832531
vt 0.522293 0.832531
vt 0.527114 0.879456
vt 0.541574 0.879456
vt 0.536755 0.832531
vt 0.539165 0.832531
vt 0.543986 0.879456
vt 0.543986 0.879456
vt 0.539165 0.832531
vt 0.522293 0.874714
vt 0.519884 0.879406
vt 0.522293 0.879406
vt 0.536755 0.874714
vt 0.536755 0.879406
vt 0.539165 0.879406
vt 0.522293 0.874714
vt 0.522293 0.879406
vt 0.519884 0.879406
vt 0.536755 0.874714
vt 0.539165 0.879406
vt 0.536755 0.879406
vt 0.524704 0.926331
vt 0.527114 0.926331
vt 0.543986 0.926331
vt 0.541574 0.926331
vt 0.541576 0.926331
vt 0.543986 0.926331
vt 0.524704 0.926331
vt 0.527114 0.926331
vt 0.536755 0.796589
vt 0.536755 0.796589
vt 0.522293 0.796589
vt 0.522293 0.796589
vt 0.519884 0.832531
vt 0.524704 0.879456
vt 0.524704 0.879456
vt 0.519884 0.832531
vt 0.536755 0.832531
vt 0.541576 0.879456
vt 0.527114 0.879456
vt 0.522293 0.832531
vt 0.522293 0.832531
vt 0.527114 0.879456
vt 0.541574 0.879456
vt 0.536755 0.832531
vt 0.539165 0.832531
vt 0.543986 0.879456
vt 0.543986 0.879456
vt 0.539165 0.832531
vt 0.522293 0.874714
vt 0.519884 0.879406
vt 0.522293 0.879406
vt 0.536755 0.874714
vt 0.536755 0.879406
vt 0.539165 0.879406
vt 0.522293 0.874714
vt 0.522293 0.879406
vt 0.519884 0.879406
vt 0.536755 0.874714
vt 0.539165 0.879406
vt 0.536755 0.879406
vt 0.524704 0.926331
vt 0.527114 0.926331
vt 0.543986 0.926331
vt 0.541574 0.926331
vt 0.541576 0.926331
vt 0.543986 0.926331
vt 0.524704 0.926331
vt 0.527114 0.926331
vt 0.536755 0.796589
vt 0.536755 0.796589
vt 0.522293 0.796589
vt 0.522293 0.796589
vt 0.519884 0.832531
vt 0.524704 0.879456
vt 0.524704 0.879456
vt 0.519884 0.832531
vt 0.536755 0.832531
vt 0.541576 0.879456
vt 0.527114 0.879456
vt 0.522293 0.832531
vt 0.522293 0.832531
vt 0.527114 0.879456
vt 0.541574 0.879456
vt 0.536755 0.832531
vt 0.539165 0.832531
vt 0.543986 0.879456
vt 0.543986 0.879456
vt 0.539165 0.832531
vt 0.522293 0.874714
vt 0.519884 0.879406
vt 0.522293 0.879406
vt 0.536755 0.874714
vt 0.536755 0.879406
vt 0.539165 0.879406
vt 0.522293 0.874714
vt 0.522293 0.879406
vt 0.519884 0.879406
vt 0.536755 0.874714
vt 0.539165 0.879406
vt 0.536755 0.879406
vt 0.524704 0.926331
vt 0.527114 0.926331
vt 0.543986 0.926331
vt 0.541574 0.926331
vt 0.541576 0.926331
vt 0.543986 0.926331
vt 0.524704 0.926331
vt 0.527114 0.926331
vt 0.536755 0.796589
vt 0.536755 0.796589
vt 0.522293 0.796589
vt 0.522293 0.796589
vn 0.0000 0.1961 0.9806
vn -0.3454 0.2500 0.9045
vn -0.3908 0.2550 0.8845
vn 0.9045 -0.2500 -0.3454
vn 0.8845 -0.2550 -0.3908
vn 0.9806 -0.1961 -0.0000
vn -0.8845 0.2550 0.3908
vn -0.9045 0.2500 0.3454
vn -0.9806 0.1961 0.0000
vn -0.0000 -0.1961 -0.9806
vn 0.3908 -0.2550 -0.8845
vn 0.3454 -0.2500 -0.9045
vn -0.4606 -0.7588 0.4606
vn -0.2418 -0.6861 0.6861
vn -0.6861 -0.6861 0.2418
vn -0.4606 -0.7588 -0.4606
vn -0.6861 -0.6861 -0.2418
vn -0.2418 -0.6861 -0.6861
vn 0.4606 -0.7588 0.4606
vn 0.6861 -0.6861 0.2418
vn 0.2418 -0.6861 0.6861
vn 0.4606 -0.7588 -0.4606
vn 0.2418 -0.6861 -0.6861
vn 0.6861 -0.6861 -0.2418
vn -0.7071 0.0000 -0.7071
vn 0.7071 0.0000 0.7071
vn 0.0000 -1.0000 0.0000
vn 0.0470 0.8766 0.4789
vn 0.5189 0.7654 0.3806
vn 0.5618 0.7932 0.2352
vn -0.1503 0.9415 0.3017
vn 0.9808 0.0000 -0.1951
vn 0.9808 0.0000 0.1951
vn 0.5974 0.7969 0.0902
vn 0.5974 0.7969 -0.0902
vn 0.5618 0.7932 -0.2352
vn 0.5284 -0.7556 0.3872
vn 0.0487 -0.8702 0.4902
vn -0.1308 -0.9555 0.2642
vn 0.3647 -0.9185 0.1526
vn -0.1308 -0.9555 -0.2642
vn -0.4054 -0.8567 -0.3191
vn 0.0487 -0.8702 -0.4902
vn -0.1503 0.9415 -0.3017
vn 0.0470 0.8766 -0.4789
vn -0.3961 0.8636 -0.3121
vn -0.4054 -0.8567 0.3191
vn -0.3961 0.8636 0.3121
vn 0.3647 -0.9185 -0.1526
vn 0.0000 1.0000 0.0000
vn -0.3827 0.0000 -0.9239
vn 0.5284 -0.7556 -0.3872
vn 0.5189 0.7654 -0.3806
vn 0.8315 0.0000 0.5556
vn -0.3827 0.0000 0.9239
vn 0.7071 0.0000 -0.7071
vn 0.8315 0.0000 -0.5556
vn 0.6091 -0.7877 -0.0922
vn 0.6091 -0.7877 0.0922
vn -0.0000 0.0000 1.0000
vn 0.0000 0.0000 -1.0000
vn 0.7588 -0.4606 -0.4606
vn 0.4606 -0.4606 -0.7588
vn 0.7543 0.4690 -0.4594
vn 0.4594 0.4690 -0.7543
vn 0.4532 0.7676 -0.4532
vn 0.6762 0.6973 0.2378
vn 0.4532 0.7676 0.4532
vn 0.2378 0.6973 0.6762
vn -0.4532 0.7676 0.4532
vn -0.6762 0.6973 0.2378
vn -0.2378 0.6973 0.6762
vn -0.7588 -0.4606 -0.4606
vn -0.4606 -0.4606 -0.7588
vn -0.7543 0.4690 -0.4594
vn -0.4532 0.7676 -0.4532
vn -0.4594 0.4690 -0.7543
vn -0.7071 0.0000 0.7071
vn -0.8315 0.0000 0.5556
vn -0.0470 0.8766 -0.4789
vn -0.5189 0.7654 -0.3806
vn -0.5618 0.7932 -0.2352
vn 0.1503 0.9415 -0.3017
vn -0.5974 0.7969 -0.0902
vn -0.5974 0.7969 0.0902
vn -0.5618 0.7932 0.2352
vn -0.5284 -0.7556 -0.3872
vn -0.0487 -0.8702 -0.4902
vn 0.1308 -0.9555 -0.2642
vn -0.3647 -0.9185 -0.1526
vn -0.9808 0.0000 0.1951
vn -0.9808 0.0000 -0.1951
vn 0.4054 -0.8567 0.3191
vn -0.0487 -0.8702 0.4902
vn 0.1308 -0.9555 0.2642
vn 0.3961 0.8636 0.3121
vn 0.1503 0.9415 0.3017
vn -0.0470 0.8766 0.4789
vn 0.4054 -0.8567 -0.3191
vn 0.3961 0.8636 -0.3121
vn 0.3827 0.0000 0.9239
vn -0.3647 -0.9185 0.1526
vn -0.5284 -0.7556 0.3872
vn -0.5189 0.7654 0.3806
vn -0.8315 0.0000 -0.5556
vn 0.3827 0.0000 -0.9239
vn -0.6091 -0.7877 0.0922
vn -0.6091 -0.7877 -0.0922
vn 1.0000 0.0000 0.0000
vn -1.0000 0.0000 0.0000
vn -0.0000 0.1961 -0.9806
vn 0.3454 0.2500 -0.9045
vn 0.3908 0.2550 -0.8845
vn -0.9045 -0.2500 0.3454
vn -0.8845 -0.2550 0.3908
vn -0.9806 -0.1961 0.0000
vn 0.8845 0.2550 -0.3908
vn 0.9045 0.2500 -0.3454
vn 0.9806 0.1961 -0.0000
vn 0.0000 -0.1961 0.9806
vn -0.3908 -0.2550 0.8845
vn -0.3454 -0.2500 0.9045
vn 0.4605 -0.7589 -0.4605
vn 0.2418 -0.6862 -0.6860
vn 0.6860 -0.6862 -0.2418
vn 0.4605 -0.7589 0.4605
vn 0.6860 -0.6862 0.2418
vn 0.2418 -0.6862 0.6860
vn -0.4605 -0.7589 -0.4605
vn -0.6860 -0.6862 -0.2418
vn -0.2418 -0.6862 -0.6860
vn -0.4605 -0.7589 0.4605
vn -0.2418 -0.6862 0.6860
vn -0.6860 -0.6862 0.2418
vn -0.9045 0.2500 -0.3454
vn -0.8845 0.2550 -0.3908
vn 0.3454 -0.2500 0.9045
vn 0.3908 -0.2550 0.8845
vn -0.3908 0.2550 -0.8845
vn -0.3454 0.2500 -0.9045
vn 0.8845 -0.2550 0.3908
vn 0.9045 -0.2500 0.3454
vn 0.9045 0.2500 0.3454
vn 0.8845 0.2550 0.3908
vn -0.3454 -0.2500 -0.9045
vn -0.3908 -0.2550 -0.8845
vn 0.3908 0.2550 0.8845
vn 0.3454 0.2500 0.9045
vn -0.8845 -0.2550 -0.3908
vn -0.9045 -0.2500 -0.3454
usemtl texture
s 1
f 13/1/1 14/2/1 4/3/2 2/4/3
f 18/5/4 19/6/5 15/7/6 12/8/6
f 3/9/7 5/10/8 10/11/9 7/12/9
f 8/13/10 9/14/10 20/15/11 17/16/12
f 1/17/13 2/18/14 3/19/15
f 6/20/16 7/21/17 8/22/18
f 11/23/19 12/24/20 13/25/21
f 16/26/22 17/27/23 18/28/24
f 6/20/16 1/17/13 3/19/15 7/21/17
f 2/18/3 4/29/2 5/30/8 3/19/7
f 9/31/25 8/22/25 7/21/25 10/32/25
f 16/26/22 6/20/16 8/22/18 17/27/23
f 19/33/5 18/28/4 17/27/12 20/34/11
f 11/23/19 16/26/22 18/28/24 12/24/20
f 14/35/26 13/25/26 12/24/26 15/36/26
f 1/17/13 11/23/19 13/25/21 2/18/14
f 6/37/27 16/38/27 11/39/27 1/40/27
f 30/41/28 41/42/29 40/43/30 29/44/31
f 33/45/32 35/46/32 42/47/33 38/48/33
f 42/49/34 35/50/35 34/51/36 40/43/30
f 39/52/37 28/53/38 27/54/39 37/55/40
f 21/56/41 22/57/42 23/58/43
f 24/59/44 25/60/45 26/61/46
f 27/54/39 28/53/38 47/62/47
f 29/44/31 50/63/48 30/41/28
f 21/64/41 31/65/49 37/66/40 27/67/39
f 34/68/50 24/69/50 29/70/50 40/71/50
f 22/57/51 26/61/51 25/60/51 23/58/51
f 23/58/43 32/72/52 31/73/49 21/56/41
f 36/74/53 25/60/45 24/59/44 34/51/36
f 39/75/54 41/76/54 30/77/26 28/78/26
f 50/63/55 47/62/55 28/53/55 30/41/55
f 26/61/46 50/63/48 29/44/31 24/59/44
f 21/56/41 27/54/39 47/62/47 22/57/42
f 23/79/56 25/80/56 36/81/57 32/82/57
f 33/83/58 31/73/49 32/72/52
f 34/51/36 35/50/35 36/74/53
f 39/52/37 37/55/40 38/84/59
f 40/43/30 41/42/29 42/49/34
f 35/50/32 33/83/32 32/72/57 36/74/57
f 41/42/54 39/52/54 38/84/33 42/49/33
f 33/83/58 38/84/59 37/55/40 31/73/49
f 58/85/27 43/86/27 49/87/27 53/88/27
f 48/89/60 52/90/60 56/91/60 54/92/60
f 46/93/50 60/94/50 55/95/50 51/96/50
f 57/97/61 61/98/61 45/99/61 44/100/61
f 22/57/62 43/101/22 44/102/63
f 26/61/64 45/103/65 46/104/66
f 47/62/20 48/105/21 49/106/19
f 50/63/67 51/107/68 52/108/69
f 53/109/13 54/110/14 62/111/15
f 55/112/70 65/113/71 56/114/72
f 70/115/73 57/116/74 58/117/16
f 59/118/75 60/119/76 61/120/77
f 44/102/63 45/103/65 26/61/64 22/57/62
f 52/108/26 48/105/26 47/62/26 50/63/26
f 48/105/21 54/110/14 53/109/13 49/106/19
f 56/114/72 52/108/69 51/107/68 55/112/70
f 65/113/78 62/111/78 54/110/78 56/114/78
f 61/120/77 57/116/74 70/115/73 59/118/75
f 57/116/74 44/102/63 43/101/22 58/117/16
f 45/103/65 61/120/77 60/119/76 46/104/66
f 59/118/75 65/113/71 55/112/70 60/119/76
f 46/104/66 51/107/68 50/63/67 26/61/64
f 22/57/62 47/62/20 49/106/19 43/101/22
f 58/117/16 53/109/13 62/111/15 70/115/73
f 63/121/78 67/122/78 78/123/79 74/124/79
f 72/125/80 83/126/81 82/127/82 71/128/83
f 84/129/84 77/130/85 76/131/86 82/127/82
f 81/132/87 69/133/88 68/134/89 79/135/90
f 75/136/91 77/137/91 84/138/92 80/139/92
f 62/111/93 63/140/94 64/141/95
f 65/113/96 66/142/97 67/143/98
f 68/134/89 69/133/88 70/115/99
f 71/128/83 59/118/100 72/125/80
f 67/143/101 63/140/101 62/111/101 65/113/101
f 79/144/90 68/145/89 64/146/95 73/147/102
f 66/148/50 71/149/50 82/150/50 76/151/50
f 63/140/94 74/152/103 73/153/102 64/141/95
f 78/154/104 67/143/98 66/142/97 76/131/86
f 81/155/105 83/156/105 72/157/25 69/158/25
f 59/118/106 70/115/106 69/133/106 72/125/106
f 71/128/83 66/142/97 65/113/96 59/118/100
f 70/115/99 62/111/93 64/141/95 68/134/89
f 75/159/107 73/153/102 74/152/103
f 76/131/86 77/130/85 78/154/104
f 81/132/87 79/135/90 80/160/108
f 82/127/82 83/126/81 84/129/84
f 77/130/91 75/159/91 74/152/79 78/154/79
f 83/126/105 81/132/105 80/160/92 84/129/92
f 75/159/107 80/160/108 79/135/90 73/153/102
f 94/161/56 86/162/56 87/163/56 95/164/56
f 95/164/109 87/163/109 88/165/109 96/166/109
f 96/166/26 88/165/26 89/167/26 97/168/26
f 97/168/60 89/167/60 90/169/60 98/170/60
f 98/170/78 90/169/78 91/171/78 99/172/78
f 99/172/110 91/171/110 92/173/110 100/174/110
f 100/174/25 92/173/25 93/175/25 101/176/25
f 101/176/61 93/175/61 86/162/61 94/161/61
f 85/177/27 94/178/27 95/179/27
f 85/177/27 95/179/27 96/180/27
f 85/177/27 96/180/27 97/181/27
f 85/177/27 97/181/27 98/182/27
f 85/177/27 98/182/27 99/183/27
f 85/177/27 99/183/27 100/184/27
f 85/177/27 100/184/27 101/185/27
f 85/177/27 101/185/27 94/178/27
f 114/186/111 115/187/111 105/188/112 103/189/113
f 119/190/114 120/191/115 116/192/116 113/193/116
f 104/194/117 106/195/118 111/196/119 108/197/119
f 109/198/120 110/199/120 121/200/121 118/201/122
f 102/202/123 103/203/124 104/204/125
f 107/205/126 108/206/127 109/207/128
f 112/208/129 113/209/130 114/210/131
f 117/211/132 118/212/133 119/213/134
f 107/205/126 102/202/123 104/204/125 108/206/127
f 103/203/113 105/214/112 106/215/118 104/204/117
f 110/216/26 109/207/26 108/206/26 111/217/26
f 117/211/132 107/205/126 109/207/128 118/212/133
f 120/218/115 119/213/114 118/212/122 121/219/121
f 112/208/129 117/211/132 119/213/134 113/209/130
f 115/220/25 114/210/25 113/209/25 116/221/25
f 102/202/123 112/208/129 114/210/131 103/203/124
f 107/222/27 117/223/27 112/224/27 102/225/27
f 134/226/9 135/227/9 125/228/135 123/229/136
f 139/230/137 140/231/138 136/232/120 133/233/120
f 124/234/139 126/235/140 131/236/111 128/237/111
f 129/238/6 130/239/6 141/240/141 138/241/142
f 122/242/129 123/243/130 124/244/131
f 127/245/123 128/246/124 129/247/125
f 132/248/132 133/249/133 134/250/134
f 137/251/126 138/252/127 139/253/128
f 127/245/123 122/242/129 124/244/131 128/246/124
f 123/243/136 125/254/135 126/255/140 124/244/139
f 130/256/56 129/247/56 128/246/56 131/257/56
f 137/251/126 127/245/123 129/247/125 138/252/127
f 140/258/138 139/253/137 138/252/142 141/259/141
f 132/248/132 137/251/126 139/253/128 133/249/133
f 135/260/78 134/250/78 133/249/78 136/261/78
f 122/242/129 132/248/132 134/250/134 123/243/130
f 127/262/27 137/263/27 132/264/27 122/265/27
f 154/266/119 155/267/119 145/268/143 143/269/144
f 159/270/145 160/271/146 156/272/10 153/273/10
f 144/274/147 146/275/148 151/276/1 148/277/1
f 149/278/116 150/279/116 161/280/149 158/281/150
f 142/282/126 143/283/127 144/284/128
f 147/285/132 148/286/133 149/287/134
f 152/288/123 153/289/124 154/290/125
f 157/291/129 158/292/130 159/293/131
f 147/285/132 142/282/126 144/284/128 148/286/133
f 143/283/144 145/294/143 146/295/148 144/284/147
f 150/296/78 149/287/78 148/286/78 151/297/78
f 157/291/129 147/285/132 149/287/134 158/292/130
f 160/298/146 159/293/145 158/292/150 161/299/149
f 152/288/123 157/291/129 159/293/131 153/289/124
f 155/300/56 154/290/56 153/289/56 156/301/56
f 142/282/126 152/288/123 154/290/125 143/283/127
f 147/302/27 157/303/27 152/304/27 142/305/27
